<?xml version="1.0" standalone="no"?> 
<!DOCTYPE svg PUBLIC "-//W3C//DTD SVG 1.1//EN" "http://www.w3.org/Graphics/SVG/1.1/DTD/svg11.dtd" >
<svg xmlns="http://www.w3.org/2000/svg">
<defs>
  <font id="trimble-icons" horiz-adv-x="24">
    <font-face font-family="trimble-icons"
      units-per-em="1000" ascent="1000"
      descent="0" />
    <missing-glyph horiz-adv-x="0" />
    <glyph glyph-name="3D_group"
      unicode="&#xF101;"
      horiz-adv-x="1000" d=" M458.3333333333333 1000L213.0952379166667 902.3809525L213.0952379166667 648.80952375L0 565.4761916666668L0 227.3809541666667L245.2380954166667 129.7619041666667L458.3333333333333 213.0952375000001L671.4285708333333 128.5714291666667L916.6666666666666 226.190475L916.6666666666666 565.4761916666668L703.5714291666666 650L703.5714291666666 902.3809525L458.3333333333333 1000zM297.6190475 886.9047620833334L458.3333333333333 951.19047625L619.0476208333333 888.0952379166666L458.3333333333333 817.8571429166667L297.6190475 886.9047620833334zM480.9523791666667 778.57142875L650 851.19047625L650 634.5238095833333L480.9523791666667 561.9047625000001L480.9523791666667 778.57142875zM266.6666666666667 634.5238095833333L266.6666666666667 852.3809525L435.7142875 779.7619045833334L435.7142875 563.0952375L266.6666666666667 634.5238095833333zM515.4761916666666 528.5714291666668L677.3809541666667 597.6190475000001L839.2857124999999 533.3333333333334L849.9999999999999 528.5714291666668L683.3333333333333 455.9523791666667L515.4761916666666 528.5714291666668zM65.4761904166667 528.5714291666668L77.3809525 533.3333333333334L240.4761904166667 597.6190475000001L402.3809525 528.5714291666668L233.3333333333333 455.9523791666667L65.4761904166667 528.5714291666668zM480.9523791666667 277.3809541666667L480.9523791666667 495.2380958333334L660.7142875 416.6666666666668L660.7142875 200.0000000000001L480.9523791666667 277.3809541666667zM255.9523808333334 417.8571416666668L435.7142875 495.2380958333334L435.7142875 277.3809541666667L255.9523808333334 200.0000000000001L255.9523808333334 417.8571416666668zM705.9523791666667 417.8571416666668L873.8095249999999 490.4761916666667L873.8095249999999 273.8095250000001L705.9523791666667 201.1904750000001L705.9523791666667 417.8571416666668zM42.8571429166667 272.6190458333333L42.8571429166667 489.2857125L210.7142858333333 416.6666666666668L210.7142858333333 200.0000000000001L42.8571429166667 272.6190458333333z" />
    <glyph glyph-name="access_time"
      unicode="&#xF102;"
      horiz-adv-x="1000" d=" M499.5833333333333 916.6666666666666C269.5833333333333 916.6666666666666 83.3333333333333 730 83.3333333333333 500C83.3333333333333 270.0000000000001 269.5833333333333 83.3333333333334 499.5833333333333 83.3333333333334C729.9999999999999 83.3333333333334 916.6666666666666 270.0000000000001 916.6666666666666 500C916.6666666666666 730 729.9999999999999 916.6666666666666 499.5833333333333 916.6666666666666zM500 166.6666666666668C315.8333333333333 166.6666666666668 166.6666666666667 315.8333333333333 166.6666666666667 500C166.6666666666667 684.1666666666667 315.8333333333333 833.3333333333334 500 833.3333333333334C684.1666666666667 833.3333333333334 833.3333333333333 684.1666666666667 833.3333333333333 500C833.3333333333333 315.8333333333333 684.1666666666667 166.6666666666668 500 166.6666666666668zM520.8333333333333 708.3333333333334L458.3333333333333 708.3333333333334L458.3333333333333 458.3333333333334L677.0833333333333 327.0833333333335L708.3333333333333 378.3333333333334L520.8333333333333 489.5833333333334L520.8333333333333 708.3333333333334z" />
    <glyph glyph-name="account_box"
      unicode="&#xF103;"
      horiz-adv-x="1000" d=" M125 791.6666666666667L125 208.3333333333334C125 162.5 162.0833333333334 125 208.3333333333333 125L791.6666666666666 125C837.5 125 875 162.5 875 208.3333333333334L875 791.6666666666667C875 837.5 837.5 875 791.6666666666666 875L208.3333333333333 875C162.0833333333334 875 125 837.5 125 791.6666666666667zM625 625C625 555.8333333333334 569.1666666666666 500 500 500C430.8333333333333 500 375 555.8333333333334 375 625C375 694.1666666666667 430.8333333333333 750 500 750C569.1666666666666 750 625 694.1666666666667 625 625zM250 291.6666666666668C250 375 416.6666666666667 420.8333333333334 500 420.8333333333334C583.3333333333333 420.8333333333334 750 375 750 291.6666666666668L750 250L250 250L250 291.6666666666668z" />
    <glyph glyph-name="account_circle"
      unicode="&#xF104;"
      horiz-adv-x="1000" d=" M500 916.6666666666666C270 916.6666666666666 83.3333333333333 730 83.3333333333333 500C83.3333333333333 270.0000000000001 270 83.3333333333334 500 83.3333333333334C729.9999999999999 83.3333333333334 916.6666666666666 270.0000000000001 916.6666666666666 500C916.6666666666666 730 729.9999999999999 916.6666666666666 500 916.6666666666666zM500 791.6666666666667C569.1666666666666 791.6666666666667 625 735.8333333333334 625 666.6666666666667C625 597.5 569.1666666666666 541.6666666666667 500 541.6666666666667C430.8333333333333 541.6666666666667 375 597.5 375 666.6666666666667C375 735.8333333333334 430.8333333333333 791.6666666666667 500 791.6666666666667zM500 200.0000000000001C395.8333333333333 200.0000000000001 303.75 253.3333333333333 250 334.1666666666668C251.25 417.0833333333334 416.6666666666667 462.5 500 462.5C582.9166666666666 462.5 748.7499999999999 417.0833333333334 750 334.1666666666668C696.25 253.3333333333333 604.1666666666666 200.0000000000001 500 200.0000000000001z" />
    <glyph glyph-name="accuracy"
      unicode="&#xF105;"
      horiz-adv-x="1000" d=" M500 937.5C258.3754220833333 937.5 62.5 741.6245779166667 62.5 500C62.5 258.3754208333335 258.3754220833333 62.5 500 62.5C741.6245791666665 62.5 937.5 258.3754208333335 937.5 500C937.5 616.0322141666668 891.4063833333332 727.31205125 809.3592166666666 809.3592166666667C727.3120499999999 891.4063825000001 616.0322125 937.5 500 937.5zM500 135.4637083333333C298.67216625 135.4637083333333 135.4637095833333 298.6721666666668 135.4637095833333 500C135.4637095833333 701.3278337500001 298.67216625 864.5362904166667 500 864.5362904166667C701.3278333333333 864.5362904166667 864.5362916666667 701.3278337500001 864.5362916666667 500C864.5362916666667 298.6721666666668 701.3278333333333 135.4637083333333 500 135.4637083333333zM500 645.7862904166667C419.4844541666667 645.7862904166667 354.2137095833333 580.5155458333334 354.2137095833333 500C354.2137095833333 419.4844541666668 419.4844541666667 354.2137083333335 500 354.2137083333335C580.5155458333332 354.2137083333335 645.7862916666666 419.4844541666668 645.7862916666666 500C645.7862916666666 580.5155458333334 580.5155458333332 645.7862904166667 500 645.7862904166667zM500 427.0362916666667C459.7032541666666 427.0362916666667 427.0362916666666 459.7032541666666 427.0362916666666 500C427.0362916666666 540.2967458333334 459.7032541666666 572.9637083333334 500 572.9637083333334C540.2967458333334 572.9637083333334 572.9637083333333 540.2967458333334 572.9637083333333 500C572.9637083333333 459.7032541666666 540.2967458333334 427.0362916666667 500 427.0362916666667zM500 791.7137095833334C338.8909666666667 791.7137095833334 208.2862904166667 661.1090333333334 208.2862904166667 500C208.2862904166667 338.8909666666667 338.8909666666667 208.2862916666668 500 208.2862916666668C661.1090333333333 208.2862916666668 791.7137083333332 338.8909666666667 791.7137083333332 500C791.7137083333332 577.3672875 760.979675 651.5658095833334 706.2727416666667 706.2727420833334C651.5658083333333 760.979675 577.3672875 791.7137095833334 500 791.7137095833334zM500 281.25C379.1877108333333 281.25 281.25 379.1877125 281.25 500C281.25 620.8122891666667 379.1877108333333 718.75 500 718.75C620.8122875 718.75 718.75 620.8122891666667 718.75 500C718.75 441.9838916666668 695.7031916666666 386.3439750000001 654.6796083333334 345.3203916666667C613.6560249999999 304.2968083333334 558.0161083333332 281.25 500 281.25z" />
    <glyph glyph-name="activity"
      unicode="&#xF106;"
      horiz-adv-x="1000" d=" M562.5 875C355.4166666666667 875 187.5 707.0833333333333 187.5 500L62.5 500L224.5833333333333 337.9166666666667L227.5 332.0833333333334L395.8333333333333 500L270.8333333333333 500C270.8333333333333 661.25 401.25 791.6666666666667 562.5 791.6666666666667C723.75 791.6666666666667 854.1666666666666 661.25 854.1666666666666 500C854.1666666666666 338.7500000000001 723.75 208.3333333333334 562.5 208.3333333333334C482.0833333333333 208.3333333333334 409.1666666666667 241.25 356.6666666666667 294.1666666666667L297.5 235.0000000000001C365.4166666666667 167.0833333333335 458.7499999999999 125 562.5 125C769.5833333333333 125 937.5 292.9166666666668 937.5 500C937.5 707.0833333333333 769.5833333333333 875 562.5 875zM520.8333333333333 666.6666666666667L520.8333333333333 458.3333333333334L699.1666666666666 352.5000000000001L729.1666666666666 402.9166666666668L583.3333333333333 489.5833333333334L583.3333333333333 666.6666666666667L520.8333333333333 666.6666666666667z" />
    <glyph glyph-name="add_a_photo"
      unicode="&#xF107;"
      horiz-adv-x="1000" d=" M145.8333333333333 812.5L145.8333333333333 937.5L229.1666666666667 937.5L229.1666666666667 812.5L354.1666666666667 812.5L354.1666666666667 729.1666666666667L229.1666666666667 729.1666666666667L229.1666666666667 604.1666666666667L145.8333333333333 604.1666666666667L145.8333333333333 729.1666666666667L20.8333333333333 729.1666666666667L20.8333333333333 812.5L145.8333333333333 812.5zM270.8333333333333 562.5L270.8333333333333 687.5L395.8333333333333 687.5L395.8333333333333 812.5L687.5 812.5L763.7499999999999 729.1666666666667L895.8333333333333 729.1666666666667C941.6666666666666 729.1666666666667 979.1666666666666 691.6666666666667 979.1666666666666 645.8333333333334L979.1666666666666 145.8333333333334C979.1666666666666 100 941.6666666666666 62.5 895.8333333333333 62.5L229.1666666666667 62.5C183.3333333333334 62.5 145.8333333333333 100 145.8333333333333 145.8333333333334L145.8333333333333 562.5L270.8333333333333 562.5zM562.5 187.5C677.5 187.5 770.8333333333333 280.8333333333333 770.8333333333333 395.8333333333334C770.8333333333333 510.8333333333334 677.5 604.1666666666667 562.5 604.1666666666667C447.5 604.1666666666667 354.1666666666667 510.8333333333334 354.1666666666667 395.8333333333334C354.1666666666667 280.8333333333333 447.5 187.5 562.5 187.5zM429.1666666666667 395.8333333333334C429.1666666666667 322.0833333333334 488.75 262.5000000000001 562.5 262.5000000000001C636.25 262.5000000000001 695.8333333333333 322.0833333333334 695.8333333333333 395.8333333333334C695.8333333333333 469.5833333333334 636.25 529.1666666666667 562.5 529.1666666666667C488.75 529.1666666666667 429.1666666666667 469.5833333333334 429.1666666666667 395.8333333333334z" />
    <glyph glyph-name="add_alert"
      unicode="&#xF108;"
      horiz-adv-x="1000" d=" M417.0833333333333 145.4166666666666C417.0833333333333 99.5833333333334 454.1666666666666 62.5 500 62.5C545.8333333333333 62.5 582.9166666666666 99.5833333333334 582.9166666666666 145.4166666666666L417.0833333333333 145.4166666666666zM786.6666666666666 320L786.6666666666666 562.5C786.6666666666666 697.9166666666667 692.9166666666666 811.25 566.25 841.25L566.25 871.25C566.25 907.9166666666666 536.6666666666666 937.5 500 937.5C463.3333333333333 937.5 433.75 907.9166666666666 433.75 871.25L433.75 841.25C307.0833333333333 811.25 213.3333333333333 697.9166666666667 213.3333333333333 562.5L213.3333333333333 320L125 231.6666666666667L125 187.5L875 187.5L875 231.6666666666667L786.6666666666666 320zM666.6666666666666 478.75L541.6666666666666 478.75L541.6666666666666 353.75L458.3333333333333 353.75L458.3333333333333 478.75L333.3333333333333 478.75L333.3333333333333 562.5L458.3333333333333 562.5L458.3333333333333 687.5L541.6666666666666 687.5L541.6666666666666 562.5L666.6666666666666 562.5L666.6666666666666 478.75z" />
    <glyph glyph-name="add_box"
      unicode="&#xF109;"
      horiz-adv-x="1000" d=" M791.6666666666666 875L208.3333333333333 875C162.0833333333334 875 125 837.5 125 791.6666666666667L125 208.3333333333334C125 162.5 162.0833333333334 125 208.3333333333333 125L791.6666666666666 125C837.5 125 875 162.5 875 208.3333333333334L875 791.6666666666667C875 837.5 837.5 875 791.6666666666666 875zM708.3333333333333 458.3333333333334L541.6666666666666 458.3333333333334L541.6666666666666 291.6666666666668L458.3333333333333 291.6666666666668L458.3333333333333 458.3333333333334L291.6666666666667 458.3333333333334L291.6666666666667 541.6666666666667L458.3333333333333 541.6666666666667L458.3333333333333 708.3333333333334L541.6666666666666 708.3333333333334L541.6666666666666 541.6666666666667L708.3333333333333 541.6666666666667L708.3333333333333 458.3333333333334z" />
    <glyph glyph-name="add_circle_outline"
      unicode="&#xF10A;"
      horiz-adv-x="1000" d=" M541.6666666666666 708.3333333333334L458.3333333333333 708.3333333333334L458.3333333333333 541.6666666666667L291.6666666666667 541.6666666666667L291.6666666666667 458.3333333333334L458.3333333333333 458.3333333333334L458.3333333333333 291.6666666666668L541.6666666666666 291.6666666666668L541.6666666666666 458.3333333333334L708.3333333333333 458.3333333333334L708.3333333333333 541.6666666666667L541.6666666666666 541.6666666666667L541.6666666666666 708.3333333333334zM500 916.6666666666666C270 916.6666666666666 83.3333333333333 730 83.3333333333333 500C83.3333333333333 270.0000000000001 270 83.3333333333334 500 83.3333333333334C729.9999999999999 83.3333333333334 916.6666666666666 270.0000000000001 916.6666666666666 500C916.6666666666666 730 729.9999999999999 916.6666666666666 500 916.6666666666666zM500 166.6666666666668C316.25 166.6666666666668 166.6666666666667 316.25 166.6666666666667 500C166.6666666666667 683.75 316.25 833.3333333333334 500 833.3333333333334C683.75 833.3333333333334 833.3333333333333 683.75 833.3333333333333 500C833.3333333333333 316.25 683.75 166.6666666666668 500 166.6666666666668z" />
    <glyph glyph-name="add_circle"
      unicode="&#xF10B;"
      horiz-adv-x="1000" d=" M500 916.6666666666666C270 916.6666666666666 83.3333333333333 730 83.3333333333333 500C83.3333333333333 270.0000000000001 270 83.3333333333334 500 83.3333333333334C729.9999999999999 83.3333333333334 916.6666666666666 270.0000000000001 916.6666666666666 500C916.6666666666666 730 729.9999999999999 916.6666666666666 500 916.6666666666666zM708.3333333333333 458.3333333333334L541.6666666666666 458.3333333333334L541.6666666666666 291.6666666666668L458.3333333333333 291.6666666666668L458.3333333333333 458.3333333333334L291.6666666666667 458.3333333333334L291.6666666666667 541.6666666666667L458.3333333333333 541.6666666666667L458.3333333333333 708.3333333333334L541.6666666666666 708.3333333333334L541.6666666666666 541.6666666666667L708.3333333333333 541.6666666666667L708.3333333333333 458.3333333333334z" />
    <glyph glyph-name="add_location"
      unicode="&#xF10C;"
      horiz-adv-x="1000" d=" M500 916.6666666666666C339.1666666666667 916.6666666666666 208.3333333333333 785.8333333333334 208.3333333333333 625C208.3333333333333 406.25 500 83.3333333333334 500 83.3333333333334C500 83.3333333333334 791.6666666666666 406.25 791.6666666666666 625C791.6666666666666 785.8333333333334 660.8333333333333 916.6666666666666 500 916.6666666666666zM666.6666666666666 583.3333333333334L541.6666666666666 583.3333333333334L541.6666666666666 458.3333333333334L458.3333333333333 458.3333333333334L458.3333333333333 583.3333333333334L333.3333333333333 583.3333333333334L333.3333333333333 666.6666666666667L458.3333333333333 666.6666666666667L458.3333333333333 791.6666666666667L541.6666666666666 791.6666666666667L541.6666666666666 666.6666666666667L666.6666666666666 666.6666666666667L666.6666666666666 583.3333333333334z" />
    <glyph glyph-name="add_measure"
      unicode="&#xF10D;"
      horiz-adv-x="1000" d=" M708.3333333333333 645.8333333333334C593.75 645.8333333333334 500 552.0833333333334 500 437.5C500 322.9166666666668 593.75 229.1666666666668 708.3333333333333 229.1666666666668C822.9166666666666 229.1666666666668 916.6666666666666 322.9166666666668 916.6666666666666 437.5C916.6666666666666 552.0833333333334 822.9166666666666 645.8333333333334 708.3333333333333 645.8333333333334zM833.3333333333333 416.6666666666668L729.1666666666666 416.6666666666668L729.1666666666666 312.5L687.5 312.5L687.5 416.6666666666668L583.3333333333333 416.6666666666668L583.3333333333333 458.3333333333334L687.5 458.3333333333334L687.5 562.5L729.1666666666666 562.5L729.1666666666666 458.3333333333334L833.3333333333333 458.3333333333334L833.3333333333333 416.6666666666668zM812.5 750L916.6666666666666 750L916.6666666666666 575C891.6666666666665 614.5833333333334 854.1666666666666 645.8333333333334 812.5 664.5833333333333L812.5 750zM770.8333333333333 679.1666666666667C750 685.4166666666667 729.1666666666666 687.5 708.3333333333333 687.5C693.7499999999999 687.5 681.25 685.4166666666667 666.6666666666666 683.3333333333334L666.6666666666666 750L770.8333333333333 750L770.8333333333333 679.1666666666667zM625 672.9166666666667C560.4166666666666 650 508.3333333333333 602.0833333333333 481.25 541.6666666666667L83.3333333333333 541.6666666666667L83.3333333333333 750L187.5 750L187.5 645.8333333333334L229.1666666666667 645.8333333333334L229.1666666666667 750L333.3333333333333 750L333.3333333333333 604.1666666666667L375 604.1666666666667L375 750L479.1666666666666 750L479.1666666666666 645.8333333333334L520.8333333333333 645.8333333333334L520.8333333333333 750L625 750L625 672.9166666666667z" />
    <glyph glyph-name="add_multiple_points"
      unicode="&#xF10E;"
      horiz-adv-x="1000" d=" M163.77464625 277.1293583333334C105.64964625 377.8048125000001 114.6197158333333 498.9348625 176.8063908333333 588.7243804166667L131.8063908333333 666.6666666666667C31.7051968333333 549.2136875 10.1475294166667 376.5526625 91.6058629166667 235.4626916666668C173.06419625 94.3727166666668 333.3718633333334 26.7116958333334 485.139725 54.6753833333335L440.139725 132.6176666666668C331.2863825 123.6571875 221.89964625 176.4539041666667 163.77464625 277.1293583333334zM583.3333333333333 875C767.0370375 875 916.6666666666666 725.3703704166667 916.6666666666666 541.6666666666667C916.6666666666666 357.9629625 767.0370375 208.3333333333334 583.3333333333333 208.3333333333334C399.6296295833334 208.3333333333334 250 357.9629625 250 541.6666666666667C250 725.3703704166667 399.6296295833334 875 583.3333333333333 875zM625 708.3333333333334L541.6666666666666 708.3333333333334L541.6666666666666 583.3333333333334L416.6666666666667 583.3333333333334L416.6666666666667 500L541.6666666666666 500L541.6666666666666 375L625 375L625 500L750 500L750 583.3333333333334L625 583.3333333333334L625 708.3333333333334z" />
    <glyph glyph-name="add_to_photos"
      unicode="&#xF10F;"
      horiz-adv-x="1000" d=" M166.6666666666667 750L83.3333333333333 750L83.3333333333333 166.6666666666668C83.3333333333333 120.8333333333334 120.8333333333333 83.3333333333334 166.6666666666667 83.3333333333334L750 83.3333333333334L750 166.6666666666668L166.6666666666667 166.6666666666668L166.6666666666667 750zM833.3333333333333 916.6666666666666L333.3333333333333 916.6666666666666C287.5 916.6666666666666 250 879.1666666666666 250 833.3333333333334L250 333.3333333333334C250 287.5 287.5 250 333.3333333333333 250L833.3333333333333 250C879.1666666666666 250 916.6666666666666 287.5 916.6666666666666 333.3333333333334L916.6666666666666 833.3333333333334C916.6666666666666 879.1666666666666 879.1666666666666 916.6666666666666 833.3333333333333 916.6666666666666zM791.6666666666666 541.6666666666667L625 541.6666666666667L625 375L541.6666666666666 375L541.6666666666666 541.6666666666667L375 541.6666666666667L375 625L541.6666666666666 625L541.6666666666666 791.6666666666667L625 791.6666666666667L625 625L791.6666666666666 625L791.6666666666666 541.6666666666667z" />
    <glyph glyph-name="add_todo"
      unicode="&#xF110;"
      horiz-adv-x="1000" d=" M858.1632666666666 925L926.12245 857.1428570833334L450.4081624999999 394.6428583333334L255.7142858333333 583.92857125L323.6734695833333 651.7857141666667L450.4081624999999 528.5714291666668L858.1632666666666 925zM858.1632666666666 691.07142875L858.1632666666666 551.7857125C823.2653041666666 567.8571416666666 782.8571416666665 576.7857125 742.4489791666666 578.5714291666667L858.1632666666666 691.07142875zM421.0204083333333 321.4285708333334C419.183675 305.3571416666668 417.3469375 291.0714291666668 417.3469375 275.0000000000001C417.3469375 257.1428583333333 419.183675 239.2857125 422.8571416666666 221.4285708333333L86.73469375 221.4285708333333C66.5306120833333 221.4285708333333 50 237.5 50 257.1428583333333L50 828.57142875C50 848.2142858333334 66.5306120833333 864.2857141666667 86.73469375 864.2857141666667L692.8571416666665 864.2857141666667L450.4081624999999 626.7857141666667L375.1020408333333 700L321.8367345833333 751.7857141666667L270.4081633333334 700L202.4489795833333 632.1428570833334L152.8571429166667 582.1428583333334L204.2857141666667 532.1428583333334L398.9795916666667 342.8571416666668L421.0204083333333 321.4285708333334zM729.5918374999999 489.2857125C850.8163249999999 489.2857125 950 392.8571416666666 950 275.0000000000001C950 157.1428583333334 850.8163249999999 60.7142875000001 729.5918374999999 60.7142875000001C608.3673458333333 60.7142875000001 509.1836749999999 157.1428583333334 509.1836749999999 275.0000000000001C509.1836749999999 392.8571416666666 608.3673458333333 489.2857125 729.5918374999999 489.2857125zM858.1632666666666 257.1428583333333L858.1632666666666 292.8571416666668L747.9591833333333 292.8571416666668L747.9591833333333 400L711.2244916666667 400L711.2244916666667 292.8571416666668L601.0204083333333 292.8571416666668L601.0204083333333 257.1428583333333L711.2244916666667 257.1428583333333L711.2244916666667 150.0000000000001L747.9591833333333 150.0000000000001L747.9591833333333 257.1428583333333L858.1632666666666 257.1428583333333z" />
    <glyph glyph-name="add_user"
      unicode="&#xF111;"
      horiz-adv-x="1000" d=" M629.813825 329.0902916666668L629.813825 329.2600125L669.9821458333333 329.2600125C705.8467208333333 326.3747458333335 752.3909708333333 436.8635458333335 772.9533291666667 499.3211125000001C775.0255041666666 505.09165 776.3006875 508.3163625 776.3006875 508.3163625L815.353225 508.3163625C804.1953583333333 467.2437208333333 782.9954083333333 408.5200291666667 756.2165249999999 361.6768500000001L763.0706458333334 357.9429750000001C773.112725 352.5118791666668 785.0675833333333 347.5899541666667 797.6600374999999 342.4983041666667C851.6959958333332 320.4344875000001 958.3333333333331 307.3659208333334 958.3333333333331 201.1201625L958.3333333333331 166.8363875000001L645.7536333333334 166.8363875000001L645.7536333333334 166.6666666666668L333.3333333333333 166.6666666666668L333.3333333333333 201.1201625C333.3333333333333 307.3659208333334 439.8112708333333 320.4344875000001 494.0066291666666 342.4983041666667C506.5990833333333 347.759675 518.5539416666667 352.6816041666667 528.5960208333333 357.9429750000001L533.0591666666666 360.319075C506.9178791666666 407.3319750000001 487.6307083333333 466.7345541666667 476.3134416666666 508.1466375000001L516.0035708333334 508.3163625C516.0035708333334 508.3163625 516.9599583333332 504.2430416666667 518.5539416666667 500.3394416666667C536.4065291666666 441.6157500000001 577.6906416666666 326.2050250000001 621.6845208333333 329.0902916666668L629.813825 329.0902916666668L629.813825 329.0902916666668zM646.2372416666667 833.1634070833334C674.5974874999999 833.1275620833334 694.5741833333333 828.39081125 706.3249166666666 822.9803120833333C706.6437125 803.2926 706.8031124999999 735.7433808333334 691.3414958333333 686.0149354166667L701.2241791666667 681.9416158333333C702.0211666666665 683.9782758333333 720.9895416666666 731.16089625 729.7564416666667 799.8981670833333C731.9880125 795.1459604166666 732.9444 791.5818058333334 732.9444 791.5818058333334C808.6585041666666 742.5322470833333 814.2374374999999 650.3733875 814.2374374999999 650.3733875C814.2374374999999 650.3733875 825.7141041666665 636.795655 827.4674833333332 631.7040054166666C829.2208625 626.4426341666667 830.4960458333334 585.2002716666667 830.4960458333334 585.2002716666667C831.6118333333334 564.8336708333334 819.0193833333333 561.6089625000001 819.0193833333333 561.6089625000001L778.8510583333333 561.6089625000001C774.3879124999999 550.5770541666667 764.0270333333333 544.6367958333334 759.4044875 544.6367958333334L759.4044875 544.467075L645.9130333333333 544.467075L645.9130333333333 544.8065166666668L532.1027791666667 544.8065166666668C527.4802333333333 544.8065166666668 517.2787541666667 550.7467750000001 512.8156083333333 561.7786833333334L472.4878875 561.7786833333334C472.4878875 561.7786833333334 459.8954333333333 564.8336708333334 461.1706208333333 585.3699933333334C461.1706208333333 585.3699933333334 462.4458041666666 626.7820775 464.1991833333333 631.8737270833333C465.9525624999999 636.9653766666668 477.4292291666666 650.5431091666667 477.4292291666666 650.5431091666667C477.4292291666666 650.5431091666667 483.0081625 742.8716904166668 558.7222666666667 791.7515275000001C558.7222666666667 791.7515275000001 559.6786541666667 795.3156820833333 561.910225 800.0678887500001C570.6771249999999 731.3306179166667 589.6455 684.1479970833334 590.4424875 682.1113375L600.3251708333333 686.1846570833334C584.8635541666666 735.9131025 585.0229541666666 803.2926 585.3417499999999 823.15003375C597.1372083333333 828.5811270833334 617.2213708333333 833.3333333333334 645.7536333333334 833.3333333333334L646.2372416666667 833.1634070833334z M250 541.6666666666667L250 666.6666666666667L166.6666666666667 666.6666666666667L166.6666666666667 541.6666666666667L41.6666666666667 541.6666666666667L41.6666666666667 458.3333333333334L166.6666666666667 458.3333333333334L166.6666666666667 333.3333333333334L250 333.3333333333334L250 458.3333333333334L375 458.3333333333334L375 541.6666666666667z" />
    <glyph glyph-name="add"
      unicode="&#xF112;"
      horiz-adv-x="1000" d=" M791.6666666666666 458.3333333333334L541.6666666666666 458.3333333333334L541.6666666666666 208.3333333333334L458.3333333333333 208.3333333333334L458.3333333333333 458.3333333333334L208.3333333333333 458.3333333333334L208.3333333333333 541.6666666666667L458.3333333333333 541.6666666666667L458.3333333333333 791.6666666666667L541.6666666666666 791.6666666666667L541.6666666666666 541.6666666666667L791.6666666666666 541.6666666666667z" />
    <glyph glyph-name="alarm_add"
      unicode="&#xF113;"
      horiz-adv-x="1000" d=" M328.3333333333333 855.8333333333334L275 919.5833333333334L83.3333333333333 759.1666666666666L137.0833333333333 695.4166666666667L328.3333333333333 855.8333333333334zM916.6666666666666 758.75L724.9999999999999 919.5833333333334L671.2499999999999 855.8333333333334L862.9166666666666 695L916.6666666666666 758.75zM500 830.4166666666666C292.9166666666667 830.4166666666666 125 662.5 125 455.4166666666667C125 248.3333333333334 292.5 80.4166666666667 500 80.4166666666667C707.0833333333333 80.4166666666667 875 248.3333333333334 875 455.4166666666667C875 662.5 707.0833333333333 830.4166666666666 500 830.4166666666666zM500 163.75C338.75 163.75 208.3333333333333 294.1666666666667 208.3333333333333 455.4166666666667C208.3333333333333 616.6666666666667 338.75 747.0833333333334 500 747.0833333333334C661.2499999999999 747.0833333333334 791.6666666666666 616.6666666666667 791.6666666666666 455.4166666666667C791.6666666666666 294.1666666666667 661.2499999999999 163.75 500 163.75zM541.6666666666666 622.0833333333334L458.3333333333333 622.0833333333334L458.3333333333333 497.0833333333334L333.3333333333333 497.0833333333334L333.3333333333333 413.75L458.3333333333333 413.75L458.3333333333333 288.75L541.6666666666666 288.75L541.6666666666666 413.75L666.6666666666666 413.75L666.6666666666666 497.0833333333334L541.6666666666666 497.0833333333334L541.6666666666666 622.0833333333334z" />
    <glyph glyph-name="alarm_off"
      unicode="&#xF114;"
      horiz-adv-x="1000" d=" M507.2916666666667 747.0833333333334C668.5416666666667 747.0833333333334 798.9583333333334 616.6666666666667 798.9583333333334 455.4166666666667C798.9583333333334 420.4166666666668 792.2916666666666 386.6666666666667 781.0416666666666 355.4166666666667L844.375 292.0833333333335C868.5416666666665 341.6666666666667 882.2916666666666 396.6666666666667 882.2916666666666 455.4166666666667C882.2916666666666 662.5 714.3749999999999 830.4166666666666 507.2916666666667 830.4166666666666C448.5416666666667 830.4166666666666 393.5416666666667 816.6666666666666 343.9583333333334 792.5L407.2916666666667 729.1666666666667C438.5416666666667 740.4166666666667 472.2916666666667 747.0833333333334 507.2916666666667 747.0833333333334zM923.9583333333331 758.75L732.2916666666666 919.5833333333334L678.5416666666666 855.8333333333334L870.2083333333334 695L923.9583333333331 758.75zM128.9583333333334 901.6666666666666L76.0416666666667 848.3333333333334L131.4583333333333 792.9166666666667L85.2083333333333 754.1666666666666L144.375 695L190.625 734.1666666666667L223.9583333333333 700.8333333333334C166.875 635 132.2916666666667 549.1666666666667 132.2916666666667 455.4166666666667C132.2916666666667 248.3333333333334 299.7916666666667 80.4166666666667 507.2916666666667 80.4166666666667C601.0416666666666 80.4166666666667 686.8749999999999 115.0000000000001 752.7083333333334 172.0833333333334L844.375 80.4166666666667L897.2916666666666 133.3333333333334L169.375 860.8333333333334L128.9583333333334 901.6666666666666zM693.5416666666666 230.8333333333334C643.125 189.1666666666666 578.125 163.75 507.2916666666667 163.75C346.0416666666667 163.75 215.625 294.1666666666667 215.625 455.4166666666667C215.625 526.25 241.0416666666667 591.25 282.7083333333333 641.6666666666667L693.5416666666666 230.8333333333334zM341.4583333333333 860.4166666666666L282.2916666666667 919.5833333333334L246.4583333333333 890L305.625 830.8333333333334L341.4583333333333 860.4166666666666z" />
    <glyph glyph-name="alarm_on"
      unicode="&#xF115;"
      horiz-adv-x="1000" d=" M916.6666666666666 758.75L724.9999999999999 919.5833333333334L671.2499999999999 855.8333333333334L862.9166666666666 695L916.6666666666666 758.75zM328.3333333333333 855.8333333333334L275 919.5833333333334L83.3333333333333 759.1666666666666L137.0833333333333 695.4166666666667L328.3333333333333 855.8333333333334zM500 830.4166666666666C292.9166666666667 830.4166666666666 125 662.5 125 455.4166666666667C125 248.3333333333334 292.5 80.4166666666667 500 80.4166666666667C707.0833333333333 80.4166666666667 875 248.3333333333334 875 455.4166666666667C875 662.5 707.0833333333333 830.4166666666666 500 830.4166666666666zM500 163.75C338.75 163.75 208.3333333333333 294.1666666666667 208.3333333333333 455.4166666666667C208.3333333333333 616.6666666666667 338.75 747.0833333333334 500 747.0833333333334C661.2499999999999 747.0833333333334 791.6666666666666 616.6666666666667 791.6666666666666 455.4166666666667C791.6666666666666 294.1666666666667 661.2499999999999 163.75 500 163.75zM439.1666666666667 391.6666666666668L350.4166666666667 480.4166666666666L306.25 436.2500000000001L438.75 303.75L688.75 553.75L644.5833333333334 597.9166666666667L439.1666666666667 391.6666666666668z" />
    <glyph glyph-name="alarm"
      unicode="&#xF116;"
      horiz-adv-x="1000" d=" M916.6666666666666 758.75L724.9999999999999 919.5833333333334L671.2499999999999 855.8333333333334L862.9166666666666 695L916.6666666666666 758.75zM328.3333333333333 855.8333333333334L275 919.5833333333334L83.3333333333333 759.1666666666666L137.0833333333333 695.4166666666667L328.3333333333333 855.8333333333334zM520.8333333333333 663.75L458.3333333333333 663.75L458.3333333333333 413.75L656.25 295L687.5 346.2500000000001L520.8333333333333 445L520.8333333333333 663.75zM500 830.4166666666666C292.9166666666667 830.4166666666666 125 662.5 125 455.4166666666667C125 248.3333333333334 292.5 80.4166666666667 500 80.4166666666667C707.0833333333333 80.4166666666667 875 248.3333333333334 875 455.4166666666667C875 662.5 707.0833333333333 830.4166666666666 500 830.4166666666666zM500 163.75C338.75 163.75 208.3333333333333 294.1666666666667 208.3333333333333 455.4166666666667C208.3333333333333 616.6666666666667 338.75 747.0833333333334 500 747.0833333333334C661.2499999999999 747.0833333333334 791.6666666666666 616.6666666666667 791.6666666666666 455.4166666666667C791.6666666666666 294.1666666666667 661.2499999999999 163.75 500 163.75z" />
    <glyph glyph-name="align_bottom"
      unicode="&#xF117;"
      horiz-adv-x="1000" d=" M83.3333333333333 166.6666666666668H916.6666666666666V83.3333333333334H83.3333333333333V166.6666666666668z M208.3333333333333 916.6666666666666H458.3333333333333V250H208.3333333333333V916.6666666666666z M541.6666666666666 541.6666666666667H791.6666666666666V250H541.6666666666666V541.6666666666667z" />
    <glyph glyph-name="align_horizontal"
      unicode="&#xF118;"
      horiz-adv-x="1000" d=" M458.3333333333333 916.6666666666666H541.6666666666666V83.3333333333334H458.3333333333333V916.6666666666666z M83.3333333333333 458.3333333333334H416.6666666666667V208.3333333333334H83.3333333333333V458.3333333333334z M583.3333333333333 458.3333333333334H916.6666666666666V208.3333333333334H583.3333333333333V458.3333333333334z M583.3333333333333 791.6666666666667H750V541.6666666666667H583.3333333333333V791.6666666666667z M250 791.6666666666667H416.6666666666667V541.6666666666667H250V791.6666666666667z" />
    <glyph glyph-name="align_left"
      unicode="&#xF119;"
      horiz-adv-x="1000" d=" M83.3333333333333 916.6666666666666H166.6666666666667V83.3333333333334H83.3333333333333V916.6666666666666z M250 458.3333333333334H916.6666666666666V208.3333333333334H250V458.3333333333334z M250 791.6666666666667H583.3333333333333V541.6666666666667H250V791.6666666666667z" />
    <glyph glyph-name="align_right"
      unicode="&#xF11A;"
      horiz-adv-x="1000" d=" M833.3333333333333 916.6666666666666H916.6666666666666V83.3333333333334H833.3333333333333V916.6666666666666z M83.3333333333333 458.3333333333334H750V208.3333333333334H83.3333333333333V458.3333333333334z M416.6666666666667 791.6666666666667H750V541.6666666666667H416.6666666666667V791.6666666666667z" />
    <glyph glyph-name="align_top"
      unicode="&#xF11B;"
      horiz-adv-x="1000" d=" M83.3333333333333 916.6666666666666H916.6666666666666V833.3333333333334H83.3333333333333V916.6666666666666z M208.3333333333333 750H458.3333333333333V83.3333333333334H208.3333333333333V750z M541.6666666666666 750H791.6666666666666V458.3333333333334H541.6666666666666V750z" />
    <glyph glyph-name="align_vertical"
      unicode="&#xF11C;"
      horiz-adv-x="1000" d=" M83.3333333333333 541.6666666666667H916.6666666666666V458.3333333333334H83.3333333333333V541.6666666666667z M208.3333333333333 916.6666666666666H458.3333333333333V583.3333333333334H208.3333333333333V916.6666666666666z M208.3333333333333 416.6666666666668H458.3333333333333V83.3333333333334H208.3333333333333V416.6666666666668z M541.6666666666666 416.6666666666668H791.6666666666666V250H541.6666666666666V416.6666666666668z M541.6666666666666 750H791.6666666666666V583.3333333333334H541.6666666666666V750z" />
    <glyph glyph-name="align"
      unicode="&#xF11D;"
      horiz-adv-x="1000" d=" M41.6666666666667 41.6666666666667L87.5 41.6666666666667L87.5 958.3333333333334L41.6666666666667 958.3333333333334L41.6666666666667 41.6666666666667zM133.3333333333334 477.0833333333334L133.3333333333334 247.9166666666667L958.3333333333331 247.9166666666667L958.3333333333331 477.0833333333334L133.3333333333334 477.0833333333334zM545.8333333333333 752.0833333333334L133.3333333333334 752.0833333333334L133.3333333333334 522.9166666666667L545.8333333333333 522.9166666666667L545.8333333333333 752.0833333333334z" />
    <glyph glyph-name="alignment"
      unicode="&#xF11E;"
      horiz-adv-x="1000" d=" M409.08306375 427.1908125C394.7913308333334 420.4357166666666 378.8724466666667 416.6666666666668 362.09239125 416.6666666666668C300.1854729166667 416.6666666666668 250 467.9673708333333 250 531.25C250 594.5326275 300.1854729166667 645.8333333333334 362.09239125 645.8333333333334C381.9374854166667 645.8333333333334 400.5780729166667 640.56162625 416.7470958333333 631.3134270833334L488.3890375 704.54741375C479.3418875 721.0757479166666 474.1847833333333 740.1305708333334 474.1847833333333 760.4166666666667C474.1847833333333 823.6992941666667 524.3702541666667 875 586.2771749999999 875C648.1840916666666 875 698.3695666666666 823.6992941666667 698.3695666666666 760.4166666666667C698.3695666666666 697.1340391666668 648.1840916666666 645.8333333333334 586.2771749999999 645.8333333333334C566.4320791666667 645.8333333333334 547.7914916666666 651.1050404166667 531.6224708333333 660.3532395833333L459.9805249999999 587.1192529166667C469.0276791666666 570.5909208333334 474.1847833333333 551.5360958333333 474.1847833333333 531.25C474.1847833333333 507.8175458333333 467.3038958333333 486.027925 455.4949041666666 467.8773166666667L559.6669375 343.6425208333334C573.9586708333334 350.3976166666668 589.8775541666666 354.1666666666668 606.6576083333333 354.1666666666668C668.564525 354.1666666666668 718.75 302.8659625 718.75 239.5833333333334C718.75 176.3007041666667 668.564525 125 606.6576083333333 125C544.7506916666666 125 494.5652166666666 176.3007041666667 494.5652166666666 239.5833333333334C494.5652166666666 263.0157875 501.4461041666667 284.8054083333334 513.2550958333334 302.9560166666668L409.08306375 427.1908125zM606.6576083333333 166.6666666666668C646.0529208333334 166.6666666666668 677.9891291666667 199.3125708333333 677.9891291666667 239.5833333333334C677.9891291666667 279.8540958333334 646.0529208333334 312.5 606.6576083333333 312.5C567.2622958333333 312.5 535.3260875 279.8540958333334 535.3260875 239.5833333333334C535.3260875 199.3125708333333 567.2622958333333 166.6666666666668 606.6576083333333 166.6666666666668zM364.13118125 457.2917625C403.5264929166666 457.2917625 435.4627041666667 489.9376666666667 435.4627041666667 530.2084291666667C435.4627041666667 570.4791916666667 403.5264929166666 603.1250954166667 364.13118125 603.1250954166667C324.7358695833334 603.1250954166667 292.7996595833333 570.4791916666667 292.7996595833333 530.2084291666667C292.7996595833333 489.9376666666667 324.7358695833334 457.2917625 364.13118125 457.2917625zM587.3456541666667 687.5C626.7691083333333 687.5 658.7281291666667 720.14590375 658.7281291666667 760.4166666666667C658.7281291666667 800.6874295833334 626.7691083333333 833.3333333333334 587.3456541666667 833.3333333333334C547.9222041666666 833.3333333333334 515.9631791666666 800.6874295833334 515.9631791666666 760.4166666666667C515.9631791666666 720.14590375 547.9222041666666 687.5 587.3456541666667 687.5z" />
    <glyph glyph-name="apps"
      unicode="&#xF11F;"
      horiz-adv-x="1000" d=" M166.6666666666667 666.6666666666667L333.3333333333333 666.6666666666667L333.3333333333333 833.3333333333334L166.6666666666667 833.3333333333334L166.6666666666667 666.6666666666667zM416.6666666666667 166.6666666666668L583.3333333333333 166.6666666666668L583.3333333333333 333.3333333333334L416.6666666666667 333.3333333333334L416.6666666666667 166.6666666666668zM166.6666666666667 166.6666666666668L333.3333333333333 166.6666666666668L333.3333333333333 333.3333333333334L166.6666666666667 333.3333333333334L166.6666666666667 166.6666666666668zM166.6666666666667 416.6666666666668L333.3333333333333 416.6666666666668L333.3333333333333 583.3333333333334L166.6666666666667 583.3333333333334L166.6666666666667 416.6666666666668zM416.6666666666667 416.6666666666668L583.3333333333333 416.6666666666668L583.3333333333333 583.3333333333334L416.6666666666667 583.3333333333334L416.6666666666667 416.6666666666668zM666.6666666666666 833.3333333333334L666.6666666666666 666.6666666666667L833.3333333333333 666.6666666666667L833.3333333333333 833.3333333333334L666.6666666666666 833.3333333333334zM416.6666666666667 666.6666666666667L583.3333333333333 666.6666666666667L583.3333333333333 833.3333333333334L416.6666666666667 833.3333333333334L416.6666666666667 666.6666666666667zM666.6666666666666 416.6666666666668L833.3333333333333 416.6666666666668L833.3333333333333 583.3333333333334L666.6666666666666 583.3333333333334L666.6666666666666 416.6666666666668zM666.6666666666666 166.6666666666668L833.3333333333333 166.6666666666668L833.3333333333333 333.3333333333334L666.6666666666666 333.3333333333334L666.6666666666666 166.6666666666668z" />
    <glyph glyph-name="archive"
      unicode="&#xF120;"
      horiz-adv-x="1000" d=" M855.8333333333333 782.0833333333333L797.9166666666665 852.0833333333334C786.6666666666667 866.25 769.5833333333333 875 750 875L250 875C230.4166666666667 875 213.3333333333333 866.25 201.6666666666667 852.0833333333334L144.1666666666667 782.0833333333333C132.0833333333333 767.9166666666666 125 749.1666666666667 125 729.1666666666667L125 208.3333333333334C125 162.5 162.5 125 208.3333333333333 125L791.6666666666666 125C837.5 125 875 162.5 875 208.3333333333334L875 729.1666666666667C875 749.1666666666667 867.9166666666665 767.9166666666666 855.8333333333333 782.0833333333333zM500 270.8333333333334L270.8333333333333 500L416.6666666666667 500L416.6666666666667 583.3333333333334L583.3333333333333 583.3333333333334L583.3333333333333 500L729.1666666666666 500L500 270.8333333333334zM213.3333333333333 791.6666666666667L247.0833333333333 833.3333333333334L747.0833333333333 833.3333333333334L786.2499999999999 791.6666666666667L213.3333333333333 791.6666666666667z" />
    <glyph glyph-name="arrow_back_outline"
      unicode="&#xF121;"
      horiz-adv-x="1000" d=" M848.5416666666665 398.5416666666667L494.0416666666666 398.5416666666667L638.25 254.5833333333334L513.25 129.5416666666668L156 486.75L513.25 844L637.8333333333333 719.375L493.7083333333333 575L848.5416666666665 575z M513.25 769.125L563 719.3333333333334L366.0416666666667 522.0416666666667L795.5833333333334 522.0416666666667L795.5833333333334 451.4583333333334L366.0416666666667 451.4583333333334L563.3333333333333 254.5416666666668L513.25 204.4166666666666L230.875 486.75z" />
    <glyph glyph-name="arrow_back"
      unicode="&#xF122;"
      horiz-adv-x="1000" d=" M833.3333333333333 541.6666666666667L326.25 541.6666666666667L559.1666666666666 774.5833333333334L500 833.3333333333334L166.6666666666667 500L500 166.6666666666668L558.75 225.4166666666668L326.25 458.3333333333334L833.3333333333333 458.3333333333334z" />
    <glyph glyph-name="arrow_downward_outline"
      unicode="&#xF123;"
      horiz-adv-x="1000" d=" M398.5416666666667 848.5416666666667L575 848.5416666666667L575 493.7083333333334L719.375 637.8333333333334L844 513.25L486.75 156L129.5416666666667 513.25L254.5833333333334 638.25L398.5416666666667 494.0416666666667z M769.1249999999999 513.25L486.75 230.8750000000001L204.4166666666666 513.25L254.5416666666667 563.3333333333333L451.4583333333334 366.0416666666668L451.4583333333334 795.5833333333334L522.0416666666666 795.5833333333334L522.0416666666666 366.0416666666668L719.3333333333333 563z" />
    <glyph glyph-name="arrow_downward"
      unicode="&#xF124;"
      horiz-adv-x="1000" d=" M833.3333333333333 500L774.5833333333333 558.75L541.6666666666666 326.25L541.6666666666666 833.3333333333334L458.3333333333333 833.3333333333334L458.3333333333333 326.25L225.8333333333333 559.1666666666667L166.6666666666667 500L500 166.6666666666668z" />
    <glyph glyph-name="arrow_drop_down_circle"
      unicode="&#xF125;"
      horiz-adv-x="1000" d=" M500 916.6666666666666C270 916.6666666666666 83.3333333333333 730 83.3333333333333 500C83.3333333333333 270.0000000000001 270 83.3333333333334 500 83.3333333333334C729.9999999999999 83.3333333333334 916.6666666666666 270.0000000000001 916.6666666666666 500C916.6666666666666 730 729.9999999999999 916.6666666666666 500 916.6666666666666zM500 416.6666666666668L333.3333333333333 583.3333333333334L666.6666666666666 583.3333333333334L500 416.6666666666668z" />
    <glyph glyph-name="arrow_drop_down"
      unicode="&#xF126;"
      horiz-adv-x="1000" d=" M291.6666666666667 604.1666666666667L500 395.8333333333334L708.3333333333333 604.1666666666667z" />
    <glyph glyph-name="arrow_drop_up"
      unicode="&#xF127;"
      horiz-adv-x="1000" d=" M291.6666666666667 395.8333333333334L500 604.1666666666667L708.3333333333333 395.8333333333334z" />
    <glyph glyph-name="arrow_forward_outline"
      unicode="&#xF128;"
      horiz-adv-x="1000" d=" M151.4583333333333 398.5416666666667L151.4583333333333 575L506.2916666666666 575L362.1666666666667 719.375L486.75 844L844 486.75L486.75 129.5416666666668L361.75 254.5833333333334L505.9583333333333 398.5416666666667z M486.75 769.125L769.1249999999999 486.75L486.75 204.4166666666666L436.6666666666667 254.5416666666668L633.9583333333333 451.4583333333334L204.4166666666666 451.4583333333334L204.4166666666666 522.0416666666667L633.9583333333333 522.0416666666667L437 719.3333333333334z" />
    <glyph glyph-name="arrow_forward"
      unicode="&#xF129;"
      horiz-adv-x="1000" d=" M500 833.3333333333334L441.25 774.5833333333334L673.75 541.6666666666667L166.6666666666667 541.6666666666667L166.6666666666667 458.3333333333334L673.75 458.3333333333334L441.25 225.4166666666668L500 166.6666666666668L833.3333333333333 500z" />
    <glyph glyph-name="arrow_next"
      unicode="&#xF12A;"
      horiz-adv-x="1000" d=" M604.1666666666666 500L395.8333333333333 291.6666666666668L395.8333333333333 708.3333333333334z" />
    <glyph glyph-name="arrow_prev"
      unicode="&#xF12B;"
      horiz-adv-x="1000" d=" M395.8333333333333 500L604.1666666666666 708.3333333333334L604.1666666666666 291.6666666666668z" />
    <glyph glyph-name="arrow_upward_outline"
      unicode="&#xF12C;"
      horiz-adv-x="1000" d=" M601.4583333333334 151.4583333333335L425 151.4583333333335L425 506.2916666666667L280.625 362.1666666666668L156 486.75L513.25 844L870.4583333333333 486.75L745.4166666666666 361.75L601.4583333333334 505.9583333333334z M230.875 486.75L280.6666666666667 437L477.9583333333333 633.9583333333334L477.9583333333333 204.4166666666666L548.5416666666666 204.4166666666666L548.5416666666666 633.9583333333334L745.4583333333333 436.6666666666668L795.5833333333334 486.75L513.25 769.125z" />
    <glyph glyph-name="arrow_upward"
      unicode="&#xF12D;"
      horiz-adv-x="1000" d=" M166.6666666666667 500L225.4166666666667 441.25L458.3333333333333 673.75L458.3333333333333 166.6666666666668L541.6666666666666 166.6666666666668L541.6666666666666 673.75L774.1666666666665 440.8333333333334L833.3333333333333 500L500 833.3333333333334z" />
    <glyph glyph-name="ascending"
      unicode="&#xF12E;"
      horiz-adv-x="1000" d=" M805.0944000000001 541.6666666666667L779.2154958333332 626.6276041666667L649.0885416666666 626.6276041666667L623.2096333333333 541.6666666666667L541.6666666666666 541.6666666666667L667.6432291666666 900.0651041666666L760.1725250000001 900.0651041666666L886.6373708333332 541.6666666666667L805.0944000000001 541.6666666666667zM761.1490875000001 690.1041666666667C737.2231875 767.09022875 723.7548958333333 810.6282045833334 720.7438166666667 820.7194008333333C717.7327333333333 830.8105975000001 715.5761791666666 838.7857779166667 714.2740875000001 844.6451825C708.9029666666667 823.8117445833334 693.5222625 772.2985879166666 668.1315083333333 690.1041666666667L761.1490875000001 690.1041666666667z M854.1666666666666 101.3997416666667L562.5 101.3997416666667L562.5 150.4720041666668L750.4212625 395.8333333333334L567.5934416666666 395.8333333333334L567.5934416666666 458.3333333333334L849.073225 458.3333333333334L849.073225 409.5052083333334L661.4200374999999 163.8997416666667L854.1666666666666 163.8997416666667z M250 333.3333333333334L250 916.6666666666666L333.3333333333333 916.6666666666666L333.3333333333333 333.3333333333334L458.3333333333333 333.3333333333334L291.6666666666667 83.3333333333334L125 333.3333333333334L250 333.3333333333334z" />
    <glyph glyph-name="assignment_ind"
      unicode="&#xF12F;"
      horiz-adv-x="1000" d=" M791.6666666666666 833.3333333333334L617.5 833.3333333333334C600 881.6666666666667 554.1666666666666 916.6666666666666 500 916.6666666666666C445.8333333333333 916.6666666666666 400 881.6666666666667 382.5 833.3333333333334L208.3333333333333 833.3333333333334C162.5 833.3333333333334 125 795.8333333333334 125 750L125 166.6666666666668C125 120.8333333333334 162.5 83.3333333333334 208.3333333333333 83.3333333333334L791.6666666666666 83.3333333333334C837.5 83.3333333333334 875 120.8333333333334 875 166.6666666666668L875 750C875 795.8333333333334 837.5 833.3333333333334 791.6666666666666 833.3333333333334zM500 833.3333333333334C522.9166666666666 833.3333333333334 541.6666666666666 814.5833333333334 541.6666666666666 791.6666666666667C541.6666666666666 768.75 522.9166666666666 750 500 750C477.0833333333333 750 458.3333333333333 768.75 458.3333333333333 791.6666666666667C458.3333333333333 814.5833333333334 477.0833333333333 833.3333333333334 500 833.3333333333334zM500 666.6666666666667C569.1666666666666 666.6666666666667 625 610.8333333333334 625 541.6666666666667C625 472.5 569.1666666666666 416.6666666666668 500 416.6666666666668C430.8333333333333 416.6666666666668 375 472.5 375 541.6666666666667C375 610.8333333333334 430.8333333333333 666.6666666666667 500 666.6666666666667zM750 166.6666666666668L250 166.6666666666668L250 225C250 308.3333333333333 416.6666666666667 354.1666666666668 500 354.1666666666668C583.3333333333333 354.1666666666668 750 308.3333333333333 750 225L750 166.6666666666668z" />
    <glyph glyph-name="assignment_late"
      unicode="&#xF130;"
      horiz-adv-x="1000" d=" M791.6666666666666 833.3333333333334L617.5 833.3333333333334C600 881.6666666666667 554.1666666666666 916.6666666666666 500 916.6666666666666C445.8333333333333 916.6666666666666 400 881.6666666666667 382.5 833.3333333333334L208.3333333333333 833.3333333333334C162.5 833.3333333333334 125 795.8333333333334 125 750L125 166.6666666666668C125 120.8333333333334 162.5 83.3333333333334 208.3333333333333 83.3333333333334L791.6666666666666 83.3333333333334C837.5 83.3333333333334 875 120.8333333333334 875 166.6666666666668L875 750C875 795.8333333333334 837.5 833.3333333333334 791.6666666666666 833.3333333333334zM541.6666666666666 208.3333333333334L458.3333333333333 208.3333333333334L458.3333333333333 291.6666666666668L541.6666666666666 291.6666666666668L541.6666666666666 208.3333333333334zM541.6666666666666 375L458.3333333333333 375L458.3333333333333 625L541.6666666666666 625L541.6666666666666 375zM500 750C477.0833333333333 750 458.3333333333333 768.75 458.3333333333333 791.6666666666667C458.3333333333333 814.5833333333334 477.0833333333333 833.3333333333334 500 833.3333333333334C522.9166666666666 833.3333333333334 541.6666666666666 814.5833333333334 541.6666666666666 791.6666666666667C541.6666666666666 768.75 522.9166666666666 750 500 750z" />
    <glyph glyph-name="assignment_return"
      unicode="&#xF131;"
      horiz-adv-x="1000" d=" M791.6666666666666 833.3333333333334L617.5 833.3333333333334C600 881.6666666666667 554.1666666666666 916.6666666666666 500 916.6666666666666C445.8333333333333 916.6666666666666 400 881.6666666666667 382.5 833.3333333333334L208.3333333333333 833.3333333333334C162.5 833.3333333333334 125 795.8333333333334 125 750L125 166.6666666666668C125 120.8333333333334 162.5 83.3333333333334 208.3333333333333 83.3333333333334L791.6666666666666 83.3333333333334C837.5 83.3333333333334 875 120.8333333333334 875 166.6666666666668L875 750C875 795.8333333333334 837.5 833.3333333333334 791.6666666666666 833.3333333333334zM500 833.3333333333334C522.9166666666666 833.3333333333334 541.6666666666666 814.5833333333334 541.6666666666666 791.6666666666667C541.6666666666666 768.75 522.9166666666666 750 500 750C477.0833333333333 750 458.3333333333333 768.75 458.3333333333333 791.6666666666667C458.3333333333333 814.5833333333334 477.0833333333333 833.3333333333334 500 833.3333333333334zM666.6666666666666 333.3333333333334L500 333.3333333333334L500 208.3333333333334L291.6666666666667 416.6666666666668L500 625L500 500L666.6666666666666 500L666.6666666666666 333.3333333333334z" />
    <glyph glyph-name="assignment_returned"
      unicode="&#xF132;"
      horiz-adv-x="1000" d=" M791.6666666666666 833.3333333333334L617.5 833.3333333333334C600 881.6666666666667 554.1666666666666 916.6666666666666 500 916.6666666666666C445.8333333333333 916.6666666666666 400 881.6666666666667 382.5 833.3333333333334L208.3333333333333 833.3333333333334C162.5 833.3333333333334 125 795.8333333333334 125 750L125 166.6666666666668C125 120.8333333333334 162.5 83.3333333333334 208.3333333333333 83.3333333333334L791.6666666666666 83.3333333333334C837.5 83.3333333333334 875 120.8333333333334 875 166.6666666666668L875 750C875 795.8333333333334 837.5 833.3333333333334 791.6666666666666 833.3333333333334zM500 833.3333333333334C522.9166666666666 833.3333333333334 541.6666666666666 814.5833333333334 541.6666666666666 791.6666666666667C541.6666666666666 768.75 522.9166666666666 750 500 750C477.0833333333333 750 458.3333333333333 768.75 458.3333333333333 791.6666666666667C458.3333333333333 814.5833333333334 477.0833333333333 833.3333333333334 500 833.3333333333334zM500 208.3333333333334L291.6666666666667 416.6666666666668L416.6666666666667 416.6666666666668L416.6666666666667 583.3333333333334L583.3333333333333 583.3333333333334L583.3333333333333 416.6666666666668L708.3333333333333 416.6666666666668L500 208.3333333333334z" />
    <glyph glyph-name="assignment"
      unicode="&#xF133;"
      horiz-adv-x="1000" d=" M791.6666666666666 833.3333333333334L617.5 833.3333333333334C600 881.6666666666667 554.1666666666666 916.6666666666666 500 916.6666666666666C445.8333333333333 916.6666666666666 400 881.6666666666667 382.5 833.3333333333334L208.3333333333333 833.3333333333334C162.5 833.3333333333334 125 795.8333333333334 125 750L125 166.6666666666668C125 120.8333333333334 162.5 83.3333333333334 208.3333333333333 83.3333333333334L791.6666666666666 83.3333333333334C837.5 83.3333333333334 875 120.8333333333334 875 166.6666666666668L875 750C875 795.8333333333334 837.5 833.3333333333334 791.6666666666666 833.3333333333334zM500 833.3333333333334C522.9166666666666 833.3333333333334 541.6666666666666 814.5833333333334 541.6666666666666 791.6666666666667C541.6666666666666 768.75 522.9166666666666 750 500 750C477.0833333333333 750 458.3333333333333 768.75 458.3333333333333 791.6666666666667C458.3333333333333 814.5833333333334 477.0833333333333 833.3333333333334 500 833.3333333333334zM583.3333333333333 250L291.6666666666667 250L291.6666666666667 333.3333333333334L583.3333333333333 333.3333333333334L583.3333333333333 250zM708.3333333333333 416.6666666666668L291.6666666666667 416.6666666666668L291.6666666666667 500L708.3333333333333 500L708.3333333333333 416.6666666666668zM708.3333333333333 583.3333333333334L291.6666666666667 583.3333333333334L291.6666666666667 666.6666666666667L708.3333333333333 666.6666666666667L708.3333333333333 583.3333333333334z" />
    <glyph glyph-name="assistant_photo"
      unicode="&#xF134;"
      horiz-adv-x="1000" d=" M579.1666666666666 770.8333333333334L562.5 854.1666666666667L187.5 854.1666666666667L187.5 145.8333333333334L270.8333333333333 145.8333333333334L270.8333333333333 437.5L504.1666666666666 437.5L520.8333333333333 354.1666666666668L812.5 354.1666666666668L812.5 770.8333333333334z" />
    <glyph glyph-name="assistant"
      unicode="&#xF135;"
      horiz-adv-x="1000" d=" M791.6666666666666 937.5L208.3333333333333 937.5C162.5 937.5 125 900 125 854.1666666666667L125 270.8333333333334C125 225 162.5 187.5 208.3333333333333 187.5L375 187.5L500 62.5L625 187.5L791.6666666666666 187.5C837.5 187.5 875 225 875 270.8333333333334L875 854.1666666666667C875 900 837.5 937.5 791.6666666666666 937.5zM578.3333333333334 484.1666666666666L500 312.5L421.6666666666667 484.1666666666666L250 562.5L421.6666666666667 640.8333333333334L500 812.5L578.3333333333334 640.8333333333334L750 562.5L578.3333333333334 484.1666666666666z" />
    <glyph glyph-name="attach_file"
      unicode="&#xF136;"
      horiz-adv-x="1000" d=" M666.6666666666666 750L666.6666666666666 270.8333333333334C666.6666666666666 178.75 592.0833333333334 104.1666666666667 500 104.1666666666667C407.9166666666667 104.1666666666667 333.3333333333333 178.75 333.3333333333333 270.8333333333334L333.3333333333333 791.6666666666667C333.3333333333333 849.1666666666666 380 895.8333333333334 437.5 895.8333333333334C495 895.8333333333334 541.6666666666666 849.1666666666666 541.6666666666666 791.6666666666667L541.6666666666666 354.1666666666668C541.6666666666666 331.25 522.9166666666666 312.5 500 312.5C477.0833333333333 312.5 458.3333333333333 331.25 458.3333333333333 354.1666666666668L458.3333333333333 750L395.8333333333333 750L395.8333333333333 354.1666666666668C395.8333333333333 296.6666666666668 442.5 250 500 250C557.5 250 604.1666666666666 296.6666666666668 604.1666666666666 354.1666666666668L604.1666666666666 791.6666666666667C604.1666666666666 883.75 529.5833333333334 958.3333333333334 437.5 958.3333333333334C345.4166666666667 958.3333333333334 270.8333333333333 883.75 270.8333333333333 791.6666666666667L270.8333333333333 270.8333333333334C270.8333333333333 144.1666666666668 373.3333333333334 41.6666666666667 500 41.6666666666667C626.6666666666666 41.6666666666667 729.1666666666666 144.1666666666668 729.1666666666666 270.8333333333334L729.1666666666666 750L666.6666666666666 750z" />
    <glyph glyph-name="attach_money"
      unicode="&#xF137;"
      horiz-adv-x="1000" d=" M516.25 545.8333333333334C421.6666666666667 570.4166666666667 391.25 595.8333333333334 391.25 635.4166666666667C391.25 680.8333333333334 433.3333333333333 712.5 503.7499999999999 712.5C577.9166666666666 712.5 605.4166666666666 677.0833333333334 607.9166666666666 625L700 625C697.0833333333333 696.6666666666667 653.3333333333333 762.5 566.25 783.75L566.25 875L441.25 875L441.25 785C360.4166666666667 767.5 295.4166666666667 715 295.4166666666667 634.5833333333334C295.4166666666667 538.3333333333334 375 490.4166666666667 491.2499999999999 462.5C595.4166666666666 437.5 616.2499999999999 400.8333333333334 616.2499999999999 362.0833333333334C616.2499999999999 333.3333333333334 595.8333333333334 287.5 503.7499999999999 287.5C417.9166666666667 287.5 384.1666666666667 325.8333333333334 379.5833333333333 375L287.9166666666667 375C292.9166666666667 283.75 361.25 232.5 441.25 215.4166666666668L441.25 125L566.25 125L566.25 214.5833333333334C647.4999999999999 230 712.0833333333333 277.0833333333334 712.0833333333333 362.5C712.0833333333333 480.8333333333334 610.8333333333333 521.25 516.25 545.8333333333334z" />
    <glyph glyph-name="attachment"
      unicode="&#xF138;"
      horiz-adv-x="1000" d=" M83.3333333333333 500C83.3333333333333 626.6666666666666 185.8333333333333 729.1666666666667 312.5 729.1666666666667L750 729.1666666666667C842.0833333333334 729.1666666666667 916.6666666666666 654.5833333333334 916.6666666666666 562.5C916.6666666666666 470.4166666666666 842.0833333333334 395.8333333333334 750 395.8333333333334L395.8333333333333 395.8333333333334C338.3333333333333 395.8333333333334 291.6666666666667 442.5 291.6666666666667 500C291.6666666666667 557.5 338.3333333333333 604.1666666666667 395.8333333333333 604.1666666666667L708.3333333333333 604.1666666666667L708.3333333333333 520.8333333333334L392.0833333333333 520.8333333333334C369.1666666666667 520.8333333333334 369.1666666666667 479.1666666666667 392.0833333333333 479.1666666666667L750 479.1666666666667C795.8333333333334 479.1666666666667 833.3333333333333 516.6666666666667 833.3333333333333 562.5C833.3333333333333 608.3333333333333 795.8333333333334 645.8333333333334 750 645.8333333333334L312.5 645.8333333333334C232.0833333333334 645.8333333333334 166.6666666666667 580.4166666666667 166.6666666666667 500C166.6666666666667 419.5833333333334 232.0833333333334 354.1666666666668 312.5 354.1666666666668L708.3333333333333 354.1666666666668L708.3333333333333 270.8333333333334L312.5 270.8333333333334C185.8333333333333 270.8333333333334 83.3333333333333 373.3333333333334 83.3333333333333 500z" />
    <glyph glyph-name="autorenew"
      unicode="&#xF139;"
      horiz-adv-x="1000" d=" M500 750L500 625L666.6666666666666 791.6666666666667L500 958.3333333333334L500 833.3333333333334C315.8333333333333 833.3333333333334 166.6666666666667 684.1666666666667 166.6666666666667 500C166.6666666666667 434.5833333333334 185.8333333333333 373.7500000000001 218.3333333333334 322.5L279.1666666666667 383.3333333333334C260.4166666666667 417.9166666666667 250 457.9166666666667 250 500C250 637.9166666666667 362.0833333333333 750 500 750zM781.6666666666667 677.5L720.8333333333334 616.6666666666667C739.1666666666665 581.6666666666667 750 542.0833333333334 750 500C750 362.0833333333334 637.9166666666666 250 500 250L500 375L333.3333333333333 208.3333333333334L500 41.6666666666667L500 166.6666666666668C684.1666666666667 166.6666666666668 833.3333333333333 315.8333333333333 833.3333333333333 500C833.3333333333333 565.4166666666667 814.1666666666666 626.25 781.6666666666667 677.5z" />
    <glyph glyph-name="axon_back"
      unicode="&#xF13A;"
      horiz-adv-x="1000" d=" M833.879325 270.8436125000001L761.3013333333333 198.8413125000001L761.3013333333333 264.2231833333333L761.3013333333333 706.1882045833333L782.6429625000001 724.3635433333334L833.879325 768.1570625L833.879325 270.8436125000001zM280.31279125 792.2126579166667L798.7211458333333 792.2126579166667L733.1747916666667 736.2062979166667L273.61012125 736.2062979166667L206.6245408333333 736.2062979166667L280.31279125 792.2126579166667zM281.46417 243.6628458333334L720.1806583333333 243.6628458333334L720.1806583333333 170.0157166666668L199.26394 170.0157166666668L281.46417 243.6628458333334zM166.1206754166667 695.0856225L253.0497833333333 695.0856225L253.0497833333333 273.3930958333333L166.1206754166667 195.4694166666667L166.1206754166667 695.0856225zM873.8897416666667 816.5560979166667C873.6841375 817.7074766666667 874.1364666666666 818.7766141666666 873.7252583333334 819.8868725C873.4785333333333 820.5448033333333 872.7383624999999 820.87376875 872.4093958333333 821.5316995833334C871.4224999999999 823.5877333333333 870.0243999999999 825.15031875 868.3795708333333 826.7951458333333C867.1048291666666 828.0698866666667 866.0356916666667 829.2623866666667 864.5142291666666 830.16704125C863.8974166666666 830.4548862500001 863.6506916666667 831.1539375 863.0338833333333 831.4417820833334C861.4712958333332 832.1819545833333 859.7031083333334 831.8941095833334 858.0171624999999 832.1819545833333C856.7835416666667 832.4286783333333 855.755525 833.3333333333334 854.4396625 833.3333333333334L273.4045179166667 833.3333333333334C268.9223641666667 833.3333333333334 264.5224520833333 831.8529891666667 260.9449529166667 829.1390245833334L133.1007729166667 732.0531095833334C132.8129283333333 731.8475062499999 132.7718075 731.4362995833334 132.52508375 731.2306962499999C129.7288775 728.8868175 127.5494820833333 725.8850083333334 126.3569820833333 722.3075095833333C126.1102583333333 721.64957875 126.0691375 720.9916479166667 125.904655 720.2925962500001C125.53456875 718.77113125 125 717.2907870833334 125 715.6459600000001L125 149.4553791666667C125 138.0649541666668 134.1699108333333 128.8950416666668 145.5603379166667 128.8950416666668L740.7409958333333 128.8950416666668C743.4549583333333 128.8950416666668 746.0866833333333 129.4707291666667 748.5950416666666 130.4576291666668C750.9389208333333 131.4445250000001 753.0771958333332 132.9248666666666 754.8865083333333 134.6108166666667C755.0098708333333 134.7341791666667 755.1332291666666 134.7341791666667 755.2565916666666 134.8575416666668L755.3388333333334 134.9397791666668L868.9552624999999 247.7337958333334C872.8206041666666 251.5580166666668 875 256.8214625000001 875 262.2905125000001L875 812.7729954166666C875 814.1299779166667 874.1364666666666 815.24023625 873.8897416666667 816.5560979166667z" />
    <glyph glyph-name="axon_bottom"
      unicode="&#xF13B;"
      horiz-adv-x="1000" d=" M933.3333333333331 270.8333333333334V729.1666666666667C933.3333333333331 741.6666666666667 924.9999999999998 754.1666666666666 916.6666666666666 758.3333333333334L525 954.1666666666669C516.6666666666666 958.3333333333334 512.5 958.3333333333334 508.3333333333333 958.3333333333334C504.1666666666666 958.3333333333334 500 958.3333333333334 491.6666666666666 954.1666666666666L100 758.3333333333334C91.6666666666667 754.1666666666666 83.3333333333333 741.6666666666667 83.3333333333333 729.1666666666667V270.8333333333334C83.3333333333333 258.3333333333334 91.6666666666667 245.8333333333334 100 241.6666666666668L491.6666666666667 45.8333333333335C500 41.6666666666667 512.5 41.6666666666667 520.8333333333333 45.8333333333335L912.4999999999998 241.6666666666668C924.9999999999998 245.8333333333334 933.3333333333331 258.3333333333334 933.3333333333331 270.8333333333334zM483.3333333333333 491.6666666666667L150 325.0000000000001L150 708.3333333333334L483.3333333333333 870.8333333333334L483.3333333333333 491.6666666666667zM866.6666666666666 329.1666666666667L533.3333333333334 491.6666666666666L533.3333333333334 874.9999999999999L866.6666666666666 712.5L866.6666666666666 329.1666666666667z" />
    <glyph glyph-name="axon_default"
      unicode="&#xF13C;"
      horiz-adv-x="1000" d=" M916.6666666666666 758.3333333333334L525 954.1666666666669C516.6666666666666 958.3333333333334 504.1666666666666 958.3333333333334 495.8333333333333 954.1666666666669L100 758.3333333333334C91.6666666666667 754.1666666666666 83.3333333333333 741.6666666666667 83.3333333333333 729.1666666666667V270.8333333333334C83.3333333333333 258.3333333333334 91.6666666666667 245.8333333333334 100 241.6666666666668L491.6666666666667 45.8333333333335C495.8333333333333 45.8333333333335 500 41.6666666666667 508.3333333333334 41.6666666666667C512.5 41.6666666666667 516.6666666666666 41.6666666666667 525 45.8333333333335L916.6666666666666 241.6666666666668C929.1666666666666 245.8333333333335 933.3333333333331 258.3333333333334 933.3333333333331 270.8333333333334V729.1666666666667C933.3333333333331 741.6666666666667 924.9999999999998 754.1666666666666 916.6666666666666 758.3333333333334zM483.3333333333333 125L150 287.5L150 670.8333333333333L483.3333333333333 504.1666666666666L483.3333333333333 125zM508.3333333333333 550L170.8333333333333 716.6666666666666L508.3333333333333 887.5L845.8333333333331 720.8333333333333L508.3333333333333 550zM866.6666666666666 291.6666666666668L533.3333333333334 129.1666666666668L533.3333333333334 512.5L866.6666666666666 675L866.6666666666666 291.6666666666668z" />
    <glyph glyph-name="axon_front"
      unicode="&#xF13D;"
      horiz-adv-x="1000" d=" M833.879325 270.8847333333333L761.3013333333333 198.8413125000001L761.3013333333333 706.1882045833333L784.3289125 725.8438874999999L833.879325 768.1570625L833.879325 270.8847333333333zM280.31279125 792.2126579166667L798.7211458333333 792.2126579166667L733.1747916666667 736.2062979166667L206.6245408333333 736.2062979166667L280.31279125 792.2126579166667zM873.8897416666667 816.5972183333333C873.6841375 817.7074766666667 874.1364666666666 818.7766141666666 873.7252583333334 819.8868725C873.4785333333333 820.5448033333333 872.7383624999999 820.87376875 872.4093958333333 821.5316995833334C871.4224999999999 823.5877333333333 870.0243999999999 825.15031875 868.3795708333333 826.7951458333333C867.1048291666666 828.0698866666667 866.0356916666667 829.2623866666667 864.5142291666666 830.16704125C863.8974166666666 830.4548862500001 863.6506916666667 831.1539375 863.0338833333333 831.4417820833334C861.4712958333332 832.14083375 859.7442291666665 831.8941095833334 858.0582833333333 832.14083375C856.8246624999999 832.4286783333333 855.755525 833.3333333333334 854.4396625 833.3333333333334L273.4045179166667 833.3333333333334C268.9223641666667 833.3333333333334 264.5224520833333 831.8529891666667 260.9449529166667 829.1390245833334L133.1007729166667 732.0531095833334C132.8129283333333 731.8475062499999 132.7718075 731.4362995833334 132.52508375 731.2306962499999C129.6877570833334 728.8868175 127.5494820833333 725.8850083333334 126.3158616666667 722.3486304166668C126.0691375 721.64957875 126.0691375 720.9916479166667 125.904655 720.2925962500001C125.53456875 718.77113125 125 717.2907870833334 125 715.6459600000001L125 149.4553791666667C125 138.1060750000002 134.1699108333333 128.8950416666668 145.5603379166667 128.8950416666668L740.7409958333333 128.8950416666668C743.4549583333333 128.8950416666668 746.1278041666667 129.4707291666667 748.6361625 130.4576291666668C750.9389208333333 131.4445250000001 753.0360749999999 132.8837458333335 754.8453874999999 134.6108166666667C754.96875 134.6930583333334 755.1332291666666 134.7341791666667 755.2565916666666 134.8575416666668L755.3388333333334 134.9397791666668L868.9552624999999 247.7749125000001C872.8206041666666 251.5991375 875 256.8625833333333 875 262.3316333333334L875 812.7729954166666C875 814.1299779166667 874.1364666666666 815.24023625 873.8897416666667 816.5972183333333z" />
    <glyph glyph-name="axon_left"
      unicode="&#xF13E;"
      horiz-adv-x="1000" d=" M916.6666666666666 758.3333333333334L525 954.1666666666669C516.6666666666666 958.3333333333334 504.1666666666666 958.3333333333334 495.8333333333333 954.1666666666669L100 758.3333333333334C91.6666666666667 754.1666666666666 83.3333333333333 741.6666666666667 83.3333333333333 729.1666666666667V270.8333333333334C83.3333333333333 258.3333333333334 91.6666666666667 245.8333333333334 100 241.6666666666668L491.6666666666667 45.8333333333335C495.8333333333333 45.8333333333335 500 41.6666666666667 508.3333333333334 41.6666666666667C512.5 41.6666666666667 516.6666666666666 41.6666666666667 525 45.8333333333335L916.6666666666666 241.6666666666668C929.1666666666666 245.8333333333335 933.3333333333331 258.3333333333334 933.3333333333331 270.8333333333334V729.1666666666667C933.3333333333331 741.6666666666667 924.9999999999998 754.1666666666666 916.6666666666666 758.3333333333334zM508.3333333333333 550L170.8333333333333 716.6666666666666L508.3333333333333 887.5L845.8333333333331 720.8333333333333L508.3333333333333 550zM866.6666666666666 291.6666666666668L533.3333333333334 129.1666666666668L533.3333333333334 512.5L866.6666666666666 675L866.6666666666666 291.6666666666668z" />
    <glyph glyph-name="axon_right"
      unicode="&#xF13F;"
      horiz-adv-x="1000" d=" M916.6666666666666 758.3333333333334L525 954.1666666666669C516.6666666666666 958.3333333333334 504.1666666666666 958.3333333333334 495.8333333333333 954.1666666666669L100 758.3333333333334C91.6666666666667 754.1666666666666 83.3333333333333 741.6666666666667 83.3333333333333 729.1666666666667V270.8333333333334C83.3333333333333 258.3333333333334 91.6666666666667 245.8333333333334 100 241.6666666666668L491.6666666666667 45.8333333333335C495.8333333333333 45.8333333333335 500 41.6666666666667 508.3333333333334 41.6666666666667C512.5 41.6666666666667 516.6666666666666 41.6666666666667 525 45.8333333333335L916.6666666666666 241.6666666666668C929.1666666666666 245.8333333333335 933.3333333333331 258.3333333333334 933.3333333333331 270.8333333333334V729.1666666666667C933.3333333333331 741.6666666666667 924.9999999999998 754.1666666666666 916.6666666666666 758.3333333333334zM483.3333333333333 125L150 287.5L150 670.8333333333333L483.3333333333333 504.1666666666666L483.3333333333333 125zM508.3333333333333 550L170.8333333333333 716.6666666666666L508.3333333333333 887.5L845.8333333333331 720.8333333333333L508.3333333333333 550z" />
    <glyph glyph-name="axon_top"
      unicode="&#xF140;"
      horiz-adv-x="1000" d=" M916.6666666666666 758.3333333333334L525 954.1666666666669C516.6666666666666 958.3333333333334 504.1666666666666 958.3333333333334 495.8333333333333 954.1666666666669L100 758.3333333333334C91.6666666666667 754.1666666666666 83.3333333333333 741.6666666666667 83.3333333333333 729.1666666666667V270.8333333333334C83.3333333333333 258.3333333333334 91.6666666666667 245.8333333333334 100 241.6666666666668L491.6666666666667 45.8333333333335C495.8333333333333 45.8333333333335 500 41.6666666666667 508.3333333333334 41.6666666666667C512.5 41.6666666666667 516.6666666666666 41.6666666666667 525 45.8333333333335L916.6666666666666 241.6666666666668C929.1666666666666 245.8333333333335 933.3333333333331 258.3333333333334 933.3333333333331 270.8333333333334V729.1666666666667C933.3333333333331 741.6666666666667 924.9999999999998 754.1666666666666 916.6666666666666 758.3333333333334zM483.3333333333333 125L150 287.5L150 670.8333333333333L483.3333333333333 504.1666666666666L483.3333333333333 125zM866.6666666666666 291.6666666666668L533.3333333333334 129.1666666666668L533.3333333333334 512.5L866.6666666666666 675L866.6666666666666 291.6666666666668z" />
    <glyph glyph-name="backspace"
      unicode="&#xF141;"
      horiz-adv-x="1000" d=" M916.6666666666666 875L291.6666666666667 875C262.9166666666667 875 240.4166666666667 860.4166666666666 225.4166666666667 838.3333333333334L0 500L225.4166666666667 162.0833333333334C240.4166666666667 140 262.9166666666667 125 291.6666666666667 125L916.6666666666666 125C962.5 125 1000 162.5 1000 208.3333333333334L1000 791.6666666666667C1000 837.5 962.5 875 916.6666666666666 875zM791.6666666666666 350.4166666666668L732.9166666666666 291.6666666666668L583.3333333333333 441.25L433.75 291.6666666666668L375 350.4166666666668L524.5833333333333 500L375 649.5833333333334L433.75 708.3333333333334L583.3333333333333 558.75L732.9166666666666 708.3333333333334L791.6666666666666 649.5833333333334L642.0833333333333 500L791.6666666666666 350.4166666666668z" />
    <glyph glyph-name="base_station"
      unicode="&#xF142;"
      horiz-adv-x="1000" d=" M222.5552808333334 709.2391304166667L222.2895595833333 535.6194833333334L299.9274904166667 709.2391304166667L360.0543479166667 686.8206520833334L268.0072920833333 480.9782625L207.8804345833334 503.3967375L214.87187625 519.0315125L207.8804345833334 519.0407583333333L208.1715291666667 709.2391304166667L151.72718 709.2391304166667C121.66493875 709.2391304166667 93.75 735.95050875 93.75 772.3751158333333C93.75 808.7997225 117.3703325 835.5111008333333 151.72718 835.5111008333333L209.7043604166667 835.5111008333333C235.47199625 845.2243291666666 271.9761466666667 850.08094375 308.4802970833333 852.5092508333333C306.3329941666667 857.365865 306.3329941666667 862.2224791666667 306.3329941666667 864.65078625C306.3329941666667 903.5037004166666 392.2251129166667 937.5 499.5902625 937.5C606.9554083333334 937.5 692.8475291666666 905.9320075 692.8475291666666 864.65078625C692.8475291666666 859.7941720833334 690.700225 854.9375579166667 690.700225 852.5092508333333C727.204375 847.65263625 761.561225 842.7960220833334 789.4761625 835.5111008333333L836.7168291666666 835.5111008333333C866.7790708333332 835.5111008333333 894.6940083333333 806.3714154166667 892.5467041666666 772.3751158333333C892.5467041666666 735.95050875 868.9263708333333 709.2391304166667 834.569525 709.2391304166667L567.7923625 709.2391304166667L816.5760874999999 82.5750583333334L773.3159458333333 62.5L515.9674083333333 709.2391304166667L515.9180958333334 709.2391304166667L515.9180958333334 198.5642958333333L468.3319416666667 198.5642958333333L468.3319416666667 709.2391304166667L466.5504208333333 709.2391304166667L215.26010625 62.5L169.8369566666667 82.5750583333334L418.6206791666667 709.2391304166667L222.5552808333334 709.2391304166667z" />
    <glyph glyph-name="baseline-category"
      unicode="&#xF143;"
      horiz-adv-x="1000" d=" M500 916.6666666666666L729.1666666666666 541.6666666666667L270.8333333333333 541.6666666666667L500 916.6666666666666zM729.1666666666666 83.3333333333334C625.6132749999999 83.3333333333334 541.6666666666666 167.2799416666667 541.6666666666666 270.8333333333334C541.6666666666666 374.3867250000001 625.6132749999999 458.3333333333334 729.1666666666666 458.3333333333334C832.7200583333333 458.3333333333334 916.6666666666666 374.3867250000001 916.6666666666666 270.8333333333334C916.6666666666666 167.2799416666667 832.7200583333333 83.3333333333334 729.1666666666666 83.3333333333334zM125 437.5L458.3333333333333 437.5L458.3333333333333 104.1666666666667L125 104.1666666666667L125 437.5z" />
    <glyph glyph-name="battery"
      unicode="&#xF144;"
      horiz-adv-x="1000" d=" M337.9470770833334 815.0211920833333L374.8366566666667 833.3333333333334L374.8366566666667 916.6666666666666L625.1312333333333 916.6666666666666L625.1312333333333 833.3333333333334L662.0414499999999 815.0180191666667C690.3977749999999 800.9472533333334 708.3333333333333 772.0251258333334 708.3333333333333 740.3696733333334L708.3333333333333 166.6666666666668C708.3333333333333 120.6429375 671.0237291666666 83.3333333333334 625 83.3333333333334L375 83.3333333333334C328.9762708333334 83.3333333333334 291.6666666666667 120.6429375 291.6666666666667 166.6666666666668L291.6666666666667 740.37854125C291.6666666666667 772.0293770833333 309.5970491666667 800.94812 337.9470770833334 815.0211920833333zM416.6666666666667 791.6666666666667C370.6429375 791.6666666666667 333.3333333333333 754.3570625 333.3333333333333 708.3333333333334L333.3333333333333 583.3333333333334L666.6666666666666 583.3333333333334L666.6666666666666 708.3333333333334C666.6666666666666 754.3570625 629.3570625 791.6666666666667 583.3333333333333 791.6666666666667L583.3333333333333 875L416.6666666666667 875L416.6666666666667 791.6666666666667z" />
    <glyph glyph-name="beenhere"
      unicode="&#xF145;"
      horiz-adv-x="1000" d=" M791.6666666666666 958.3333333333334L208.3333333333333 958.3333333333334C162.5 958.3333333333334 125.4166666666667 920.8333333333334 125.4166666666667 875L125 336.25C125 307.5 139.5833333333334 282.0833333333334 161.6666666666667 267.0833333333334L500 41.6666666666667L837.9166666666666 267.0833333333334C860 282.0833333333334 874.5833333333333 307.5 874.5833333333333 336.25L875 875C875 920.8333333333334 837.5 958.3333333333334 791.6666666666666 958.3333333333334zM416.6666666666667 333.3333333333334L208.3333333333333 541.6666666666667L267.0833333333333 600.4166666666667L416.6666666666667 451.25L732.9166666666666 767.5L791.6666666666666 708.3333333333334L416.6666666666667 333.3333333333334z" />
    <glyph glyph-name="block"
      unicode="&#xF146;"
      horiz-adv-x="1000" d=" M500 916.6666666666666C270 916.6666666666666 83.3333333333333 730 83.3333333333333 500C83.3333333333333 270.0000000000001 270 83.3333333333334 500 83.3333333333334C729.9999999999999 83.3333333333334 916.6666666666666 270.0000000000001 916.6666666666666 500C916.6666666666666 730 729.9999999999999 916.6666666666666 500 916.6666666666666zM166.6666666666667 500C166.6666666666667 684.1666666666667 315.8333333333333 833.3333333333334 500 833.3333333333334C577.0833333333333 833.3333333333334 647.9166666666666 807.0833333333334 704.1666666666665 762.9166666666666L237.0833333333334 295.8333333333335C192.9166666666667 352.0833333333334 166.6666666666667 422.9166666666668 166.6666666666667 500zM500 166.6666666666668C422.9166666666667 166.6666666666668 352.0833333333333 192.9166666666666 295.8333333333333 237.0833333333335L762.9166666666665 704.1666666666667C807.0833333333334 647.9166666666667 833.3333333333333 577.0833333333333 833.3333333333333 500C833.3333333333333 315.8333333333333 684.1666666666667 166.6666666666668 500 166.6666666666668z" />
    <glyph glyph-name="bluetooth"
      unicode="&#xF147;"
      horiz-adv-x="1000" d=" M764.7916666666666 678.75L526.875 916.6666666666666L485.2083333333333 916.6666666666666L485.2083333333333 600.4166666666667L293.9583333333333 791.6666666666667L235.2083333333333 732.9166666666667L468.1249999999999 500L235.2083333333333 267.0833333333334L293.9583333333333 208.3333333333334L485.2083333333333 399.5833333333334L485.2083333333333 83.3333333333334L526.875 83.3333333333334L764.7916666666666 321.2500000000001L585.625 500L764.7916666666666 678.75zM568.5416666666666 757.0833333333334L646.875 678.75L568.5416666666666 600.4166666666667L568.5416666666666 757.0833333333334zM646.875 321.2500000000001L568.5416666666666 242.9166666666667L568.5416666666666 399.5833333333334L646.875 321.2500000000001z" />
    <glyph glyph-name="book"
      unicode="&#xF148;"
      horiz-adv-x="1000" d=" M750 916.6666666666666L250 916.6666666666666C204.1666666666667 916.6666666666666 166.6666666666667 879.1666666666666 166.6666666666667 833.3333333333334L166.6666666666667 166.6666666666668C166.6666666666667 120.8333333333334 204.1666666666667 83.3333333333334 250 83.3333333333334L750 83.3333333333334C795.8333333333334 83.3333333333334 833.3333333333333 120.8333333333334 833.3333333333333 166.6666666666668L833.3333333333333 833.3333333333334C833.3333333333333 879.1666666666666 795.8333333333334 916.6666666666666 750 916.6666666666666zM250 833.3333333333334L458.3333333333333 833.3333333333334L458.3333333333333 500L354.1666666666667 562.5L250 500L250 833.3333333333334z" />
    <glyph glyph-name="bookmark_border"
      unicode="&#xF149;"
      horiz-adv-x="1000" d=" M708.3333333333333 875L291.6666666666667 875C245.8333333333334 875 208.75 837.5 208.75 791.6666666666667L208.3333333333333 125L500 250L791.6666666666666 125L791.6666666666666 791.6666666666667C791.6666666666666 837.5 754.1666666666666 875 708.3333333333333 875zM708.3333333333333 250L500 340.8333333333334L291.6666666666667 250L291.6666666666667 791.6666666666667L708.3333333333333 791.6666666666667L708.3333333333333 250z" />
    <glyph glyph-name="bookmark"
      unicode="&#xF14A;"
      horiz-adv-x="1000" d=" M708.3333333333333 875L291.6666666666667 875C245.8333333333334 875 208.75 837.5 208.75 791.6666666666667L208.3333333333333 125L500 250L791.6666666666666 125L791.6666666666666 791.6666666666667C791.6666666666666 837.5 754.1666666666666 875 708.3333333333333 875z" />
    <glyph glyph-name="border_all"
      unicode="&#xF14B;"
      horiz-adv-x="1000" d=" M125 875L125 125L875 125L875 875L125 875zM458.3333333333333 208.3333333333334L208.3333333333333 208.3333333333334L208.3333333333333 458.3333333333334L458.3333333333333 458.3333333333334L458.3333333333333 208.3333333333334zM458.3333333333333 541.6666666666667L208.3333333333333 541.6666666666667L208.3333333333333 791.6666666666667L458.3333333333333 791.6666666666667L458.3333333333333 541.6666666666667zM791.6666666666666 208.3333333333334L541.6666666666666 208.3333333333334L541.6666666666666 458.3333333333334L791.6666666666666 458.3333333333334L791.6666666666666 208.3333333333334zM791.6666666666666 541.6666666666667L541.6666666666666 541.6666666666667L541.6666666666666 791.6666666666667L791.6666666666666 791.6666666666667L791.6666666666666 541.6666666666667z" />
    <glyph glyph-name="border_bottom"
      unicode="&#xF14C;"
      horiz-adv-x="1000" d=" M375 541.6666666666667L291.6666666666667 541.6666666666667L291.6666666666667 458.3333333333334L375 458.3333333333334L375 541.6666666666667zM541.6666666666666 375L458.3333333333333 375L458.3333333333333 291.6666666666668L541.6666666666666 291.6666666666668L541.6666666666666 375zM375 875L291.6666666666667 875L291.6666666666667 791.6666666666667L375 791.6666666666667L375 875zM541.6666666666666 541.6666666666667L458.3333333333333 541.6666666666667L458.3333333333333 458.3333333333334L541.6666666666666 458.3333333333334L541.6666666666666 541.6666666666667zM208.3333333333333 875L125 875L125 791.6666666666667L208.3333333333333 791.6666666666667L208.3333333333333 875zM541.6666666666666 708.3333333333334L458.3333333333333 708.3333333333334L458.3333333333333 625L541.6666666666666 625L541.6666666666666 708.3333333333334zM708.3333333333333 541.6666666666667L625 541.6666666666667L625 458.3333333333334L708.3333333333333 458.3333333333334L708.3333333333333 541.6666666666667zM541.6666666666666 875L458.3333333333333 875L458.3333333333333 791.6666666666667L541.6666666666666 791.6666666666667L541.6666666666666 875zM708.3333333333333 875L625 875L625 791.6666666666667L708.3333333333333 791.6666666666667L708.3333333333333 875zM791.6666666666666 458.3333333333334L875 458.3333333333334L875 541.6666666666667L791.6666666666666 541.6666666666667L791.6666666666666 458.3333333333334zM791.6666666666666 291.6666666666668L875 291.6666666666668L875 375L791.6666666666666 375L791.6666666666666 291.6666666666668zM208.3333333333333 708.3333333333334L125 708.3333333333334L125 625L208.3333333333333 625L208.3333333333333 708.3333333333334zM791.6666666666666 875L791.6666666666666 791.6666666666667L875 791.6666666666667L875 875L791.6666666666666 875zM791.6666666666666 625L875 625L875 708.3333333333334L791.6666666666666 708.3333333333334L791.6666666666666 625zM208.3333333333333 541.6666666666667L125 541.6666666666667L125 458.3333333333334L208.3333333333333 458.3333333333334L208.3333333333333 541.6666666666667zM125 125L875 125L875 208.3333333333334L125 208.3333333333334L125 125zM208.3333333333333 375L125 375L125 291.6666666666668L208.3333333333333 291.6666666666668L208.3333333333333 375z" />
    <glyph glyph-name="border_clear"
      unicode="&#xF14D;"
      horiz-adv-x="1000" d=" M291.6666666666667 791.6666666666667L375 791.6666666666667L375 875L291.6666666666667 875L291.6666666666667 791.6666666666667zM291.6666666666667 458.3333333333334L375 458.3333333333334L375 541.6666666666667L291.6666666666667 541.6666666666667L291.6666666666667 458.3333333333334zM291.6666666666667 125L375 125L375 208.3333333333334L291.6666666666667 208.3333333333334L291.6666666666667 125zM458.3333333333333 291.6666666666668L541.6666666666666 291.6666666666668L541.6666666666666 375L458.3333333333333 375L458.3333333333333 291.6666666666668zM458.3333333333333 125L541.6666666666666 125L541.6666666666666 208.3333333333334L458.3333333333333 208.3333333333334L458.3333333333333 125zM125 125L208.3333333333333 125L208.3333333333333 208.3333333333334L125 208.3333333333334L125 125zM125 291.6666666666668L208.3333333333333 291.6666666666668L208.3333333333333 375L125 375L125 291.6666666666668zM125 458.3333333333334L208.3333333333333 458.3333333333334L208.3333333333333 541.6666666666667L125 541.6666666666667L125 458.3333333333334zM125 625L208.3333333333333 625L208.3333333333333 708.3333333333334L125 708.3333333333334L125 625zM125 791.6666666666667L208.3333333333333 791.6666666666667L208.3333333333333 875L125 875L125 791.6666666666667zM458.3333333333333 458.3333333333334L541.6666666666666 458.3333333333334L541.6666666666666 541.6666666666667L458.3333333333333 541.6666666666667L458.3333333333333 458.3333333333334zM791.6666666666666 291.6666666666668L875 291.6666666666668L875 375L791.6666666666666 375L791.6666666666666 291.6666666666668zM791.6666666666666 458.3333333333334L875 458.3333333333334L875 541.6666666666667L791.6666666666666 541.6666666666667L791.6666666666666 458.3333333333334zM791.6666666666666 125L875 125L875 208.3333333333334L791.6666666666666 208.3333333333334L791.6666666666666 125zM791.6666666666666 625L875 625L875 708.3333333333334L791.6666666666666 708.3333333333334L791.6666666666666 625zM458.3333333333333 625L541.6666666666666 625L541.6666666666666 708.3333333333334L458.3333333333333 708.3333333333334L458.3333333333333 625zM791.6666666666666 875L791.6666666666666 791.6666666666667L875 791.6666666666667L875 875L791.6666666666666 875zM458.3333333333333 791.6666666666667L541.6666666666666 791.6666666666667L541.6666666666666 875L458.3333333333333 875L458.3333333333333 791.6666666666667zM625 125L708.3333333333333 125L708.3333333333333 208.3333333333334L625 208.3333333333334L625 125zM625 458.3333333333334L708.3333333333333 458.3333333333334L708.3333333333333 541.6666666666667L625 541.6666666666667L625 458.3333333333334zM625 791.6666666666667L708.3333333333333 791.6666666666667L708.3333333333333 875L625 875L625 791.6666666666667z" />
    <glyph glyph-name="border_horizontal"
      unicode="&#xF14E;"
      horiz-adv-x="1000" d=" M125 125L208.3333333333333 125L208.3333333333333 208.3333333333334L125 208.3333333333334L125 125zM208.3333333333333 708.3333333333334L125 708.3333333333334L125 625L208.3333333333333 625L208.3333333333333 708.3333333333334zM125 291.6666666666668L208.3333333333333 291.6666666666668L208.3333333333333 375L125 375L125 291.6666666666668zM291.6666666666667 125L375 125L375 208.3333333333334L291.6666666666667 208.3333333333334L291.6666666666667 125zM208.3333333333333 875L125 875L125 791.6666666666667L208.3333333333333 791.6666666666667L208.3333333333333 875zM375 875L291.6666666666667 875L291.6666666666667 791.6666666666667L375 791.6666666666667L375 875zM708.3333333333333 875L625 875L625 791.6666666666667L708.3333333333333 791.6666666666667L708.3333333333333 875zM541.6666666666666 708.3333333333334L458.3333333333333 708.3333333333334L458.3333333333333 625L541.6666666666666 625L541.6666666666666 708.3333333333334zM541.6666666666666 875L458.3333333333333 875L458.3333333333333 791.6666666666667L541.6666666666666 791.6666666666667L541.6666666666666 875zM791.6666666666666 291.6666666666668L875 291.6666666666668L875 375L791.6666666666666 375L791.6666666666666 291.6666666666668zM458.3333333333333 125L541.6666666666666 125L541.6666666666666 208.3333333333334L458.3333333333333 208.3333333333334L458.3333333333333 125zM125 458.3333333333334L875 458.3333333333334L875 541.6666666666667L125 541.6666666666667L125 458.3333333333334zM791.6666666666666 875L791.6666666666666 791.6666666666667L875 791.6666666666667L875 875L791.6666666666666 875zM791.6666666666666 625L875 625L875 708.3333333333334L791.6666666666666 708.3333333333334L791.6666666666666 625zM458.3333333333333 291.6666666666668L541.6666666666666 291.6666666666668L541.6666666666666 375L458.3333333333333 375L458.3333333333333 291.6666666666668zM625 125L708.3333333333333 125L708.3333333333333 208.3333333333334L625 208.3333333333334L625 125zM791.6666666666666 125L875 125L875 208.3333333333334L791.6666666666666 208.3333333333334L791.6666666666666 125z" />
    <glyph glyph-name="border_inner"
      unicode="&#xF14F;"
      horiz-adv-x="1000" d=" M125 125L208.3333333333333 125L208.3333333333333 208.3333333333334L125 208.3333333333334L125 125zM291.6666666666667 125L375 125L375 208.3333333333334L291.6666666666667 208.3333333333334L291.6666666666667 125zM208.3333333333333 708.3333333333334L125 708.3333333333334L125 625L208.3333333333333 625L208.3333333333333 708.3333333333334zM125 291.6666666666668L208.3333333333333 291.6666666666668L208.3333333333333 375L125 375L125 291.6666666666668zM375 875L291.6666666666667 875L291.6666666666667 791.6666666666667L375 791.6666666666667L375 875zM208.3333333333333 875L125 875L125 791.6666666666667L208.3333333333333 791.6666666666667L208.3333333333333 875zM708.3333333333333 875L625 875L625 791.6666666666667L708.3333333333333 791.6666666666667L708.3333333333333 875zM791.6666666666666 625L875 625L875 708.3333333333334L791.6666666666666 708.3333333333334L791.6666666666666 625zM791.6666666666666 875L791.6666666666666 791.6666666666667L875 791.6666666666667L875 875L791.6666666666666 875zM625 125L708.3333333333333 125L708.3333333333333 208.3333333333334L625 208.3333333333334L625 125zM541.6666666666666 875L458.3333333333333 875L458.3333333333333 541.6666666666667L125 541.6666666666667L125 458.3333333333334L458.3333333333333 458.3333333333334L458.3333333333333 125L541.6666666666666 125L541.6666666666666 458.3333333333334L875 458.3333333333334L875 541.6666666666667L541.6666666666666 541.6666666666667L541.6666666666666 875zM791.6666666666666 125L875 125L875 208.3333333333334L791.6666666666666 208.3333333333334L791.6666666666666 125zM791.6666666666666 291.6666666666668L875 291.6666666666668L875 375L791.6666666666666 375L791.6666666666666 291.6666666666668z" />
    <glyph glyph-name="border_left"
      unicode="&#xF150;"
      horiz-adv-x="1000" d=" M458.3333333333333 125L541.6666666666666 125L541.6666666666666 208.3333333333334L458.3333333333333 208.3333333333334L458.3333333333333 125zM458.3333333333333 291.6666666666668L541.6666666666666 291.6666666666668L541.6666666666666 375L458.3333333333333 375L458.3333333333333 291.6666666666668zM458.3333333333333 791.6666666666667L541.6666666666666 791.6666666666667L541.6666666666666 875L458.3333333333333 875L458.3333333333333 791.6666666666667zM458.3333333333333 625L541.6666666666666 625L541.6666666666666 708.3333333333334L458.3333333333333 708.3333333333334L458.3333333333333 625zM458.3333333333333 458.3333333333334L541.6666666666666 458.3333333333334L541.6666666666666 541.6666666666667L458.3333333333333 541.6666666666667L458.3333333333333 458.3333333333334zM291.6666666666667 125L375 125L375 208.3333333333334L291.6666666666667 208.3333333333334L291.6666666666667 125zM291.6666666666667 791.6666666666667L375 791.6666666666667L375 875L291.6666666666667 875L291.6666666666667 791.6666666666667zM291.6666666666667 458.3333333333334L375 458.3333333333334L375 541.6666666666667L291.6666666666667 541.6666666666667L291.6666666666667 458.3333333333334zM125 125L208.3333333333333 125L208.3333333333333 875L125 875L125 125zM791.6666666666666 625L875 625L875 708.3333333333334L791.6666666666666 708.3333333333334L791.6666666666666 625zM625 125L708.3333333333333 125L708.3333333333333 208.3333333333334L625 208.3333333333334L625 125zM791.6666666666666 291.6666666666668L875 291.6666666666668L875 375L791.6666666666666 375L791.6666666666666 291.6666666666668zM791.6666666666666 875L791.6666666666666 791.6666666666667L875 791.6666666666667L875 875L791.6666666666666 875zM791.6666666666666 458.3333333333334L875 458.3333333333334L875 541.6666666666667L791.6666666666666 541.6666666666667L791.6666666666666 458.3333333333334zM791.6666666666666 125L875 125L875 208.3333333333334L791.6666666666666 208.3333333333334L791.6666666666666 125zM625 458.3333333333334L708.3333333333333 458.3333333333334L708.3333333333333 541.6666666666667L625 541.6666666666667L625 458.3333333333334zM625 791.6666666666667L708.3333333333333 791.6666666666667L708.3333333333333 875L625 875L625 791.6666666666667z" />
    <glyph glyph-name="border_outer"
      unicode="&#xF151;"
      horiz-adv-x="1000" d=" M541.6666666666666 708.3333333333334L458.3333333333333 708.3333333333334L458.3333333333333 625L541.6666666666666 625L541.6666666666666 708.3333333333334zM541.6666666666666 541.6666666666667L458.3333333333333 541.6666666666667L458.3333333333333 458.3333333333334L541.6666666666666 458.3333333333334L541.6666666666666 541.6666666666667zM708.3333333333333 541.6666666666667L625 541.6666666666667L625 458.3333333333334L708.3333333333333 458.3333333333334L708.3333333333333 541.6666666666667zM125 875L125 125L875 125L875 875L125 875zM791.6666666666666 208.3333333333334L208.3333333333333 208.3333333333334L208.3333333333333 791.6666666666667L791.6666666666666 791.6666666666667L791.6666666666666 208.3333333333334zM541.6666666666666 375L458.3333333333333 375L458.3333333333333 291.6666666666668L541.6666666666666 291.6666666666668L541.6666666666666 375zM375 541.6666666666667L291.6666666666667 541.6666666666667L291.6666666666667 458.3333333333334L375 458.3333333333334L375 541.6666666666667z" />
    <glyph glyph-name="border_right"
      unicode="&#xF152;"
      horiz-adv-x="1000" d=" M291.6666666666667 125L375 125L375 208.3333333333334L291.6666666666667 208.3333333333334L291.6666666666667 125zM125 791.6666666666667L208.3333333333333 791.6666666666667L208.3333333333333 875L125 875L125 791.6666666666667zM291.6666666666667 791.6666666666667L375 791.6666666666667L375 875L291.6666666666667 875L291.6666666666667 791.6666666666667zM291.6666666666667 458.3333333333334L375 458.3333333333334L375 541.6666666666667L291.6666666666667 541.6666666666667L291.6666666666667 458.3333333333334zM125 125L208.3333333333333 125L208.3333333333333 208.3333333333334L125 208.3333333333334L125 125zM458.3333333333333 125L541.6666666666666 125L541.6666666666666 208.3333333333334L458.3333333333333 208.3333333333334L458.3333333333333 125zM125 458.3333333333334L208.3333333333333 458.3333333333334L208.3333333333333 541.6666666666667L125 541.6666666666667L125 458.3333333333334zM125 291.6666666666668L208.3333333333333 291.6666666666668L208.3333333333333 375L125 375L125 291.6666666666668zM125 625L208.3333333333333 625L208.3333333333333 708.3333333333334L125 708.3333333333334L125 625zM458.3333333333333 291.6666666666668L541.6666666666666 291.6666666666668L541.6666666666666 375L458.3333333333333 375L458.3333333333333 291.6666666666668zM625 458.3333333333334L708.3333333333333 458.3333333333334L708.3333333333333 541.6666666666667L625 541.6666666666667L625 458.3333333333334zM791.6666666666666 875L791.6666666666666 125L875 125L875 875L791.6666666666666 875zM625 125L708.3333333333333 125L708.3333333333333 208.3333333333334L625 208.3333333333334L625 125zM625 791.6666666666667L708.3333333333333 791.6666666666667L708.3333333333333 875L625 875L625 791.6666666666667zM458.3333333333333 458.3333333333334L541.6666666666666 458.3333333333334L541.6666666666666 541.6666666666667L458.3333333333333 541.6666666666667L458.3333333333333 458.3333333333334zM458.3333333333333 791.6666666666667L541.6666666666666 791.6666666666667L541.6666666666666 875L458.3333333333333 875L458.3333333333333 791.6666666666667zM458.3333333333333 625L541.6666666666666 625L541.6666666666666 708.3333333333334L458.3333333333333 708.3333333333334L458.3333333333333 625z" />
    <glyph glyph-name="border_style"
      unicode="&#xF153;"
      horiz-adv-x="1000" d=" M625 125L708.3333333333333 125L708.3333333333333 208.3333333333334L625 208.3333333333334L625 125zM791.6666666666666 125L875 125L875 208.3333333333334L791.6666666666666 208.3333333333334L791.6666666666666 125zM291.6666666666667 125L375 125L375 208.3333333333334L291.6666666666667 208.3333333333334L291.6666666666667 125zM458.3333333333333 125L541.6666666666666 125L541.6666666666666 208.3333333333334L458.3333333333333 208.3333333333334L458.3333333333333 125zM791.6666666666666 291.6666666666668L875 291.6666666666668L875 375L791.6666666666666 375L791.6666666666666 291.6666666666668zM791.6666666666666 458.3333333333334L875 458.3333333333334L875 541.6666666666667L791.6666666666666 541.6666666666667L791.6666666666666 458.3333333333334zM125 875L125 125L208.3333333333333 125L208.3333333333333 791.6666666666667L875 791.6666666666667L875 875L125 875zM791.6666666666666 625L875 625L875 708.3333333333334L791.6666666666666 708.3333333333334L791.6666666666666 625z" />
    </font>
</defs>
</svg>
